<?xml version="1.0" encoding="utf-8"?>
<!-- Generator: Adobe Illustrator 25.4.1, SVG Export Plug-In . SVG Version: 6.00 Build 0)  -->
<svg version="1.1" id="ICONS" xmlns="http://www.w3.org/2000/svg" xmlns:xlink="http://www.w3.org/1999/xlink" x="0px" y="0px"
	 viewBox="0 0 89.5 74.7" style="enable-background:new 0 0 89.5 74.7;" xml:space="preserve">
<style type="text/css">
	.st0{fill:#E9F8FA;}
	.st1{fill:#F7DD9C;}
	.st2{fill:#099BAE;}
</style>
<path class="st0" d="M68.9,5.7l-1.2,0.4l-0.8-2.7l-28.3,8.9L37.1,14l-2-0.5l-28.5,9l0.8,2.7l-4.2,1.3l14,44.4l30.9-9.8
	c0.6,1.9,2.6,3,4.5,2.4c1.9-0.6,3-2.6,2.4-4.5l30.9-9.8l-14-44.4L68.9,5.7z"/>
<path class="st1" d="M53.2,58.3c-1.2-0.7-2.6-0.9-3.9-0.5l-26,8.2L10.2,24.6l26-8.2c1.3-0.4,2.6,0.3,3,1.6c0,0,0,0,0,0l2.3-0.7
	c-0.4-1.3,0.3-2.6,1.6-3l25.7-8.1l13.1,41.4l-25.7,8.1C54.8,56.1,53.7,57.1,53.2,58.3z"/>
<path class="st2" d="M71.5,3.6l-2.8,0.9l-0.5-1.5c-0.2-0.7-0.9-1-1.6-0.8l-26.9,8.5c-1.3,0.4-2.4,1.4-3,2.7
	c-1.2-0.7-2.6-0.9-3.9-0.5L5.8,21.3c-0.7,0.2-1,0.9-0.8,1.6l0.5,1.5l-2.8,0.9c-0.7,0.2-1,0.9-0.8,1.6l0,0l14,44.4
	c0.2,0.7,0.9,1.1,1.5,0.9c0,0,0,0,0,0l29.9-9.4c1.5,2.3,4.5,2.9,6.7,1.5c1.5-0.9,2.3-2.6,2.2-4.3l29.9-9.4c0.7-0.2,1-0.9,0.8-1.6
	l-14-44.5C72.8,3.8,72.1,3.4,71.5,3.6L71.5,3.6z M7.7,23.3l25.9-8.2c1.2-0.4,2.6,0.3,3,1.5c0.2,0.7,0.9,1,1.6,0.8
	c0.7-0.2,1-0.9,0.8-1.6c-0.4-1.2,0.3-2.6,1.5-3l25.7-8.1l13,41.3l-25.7,8.1c-1.3,0.4-2.4,1.4-3,2.7c-1.2-0.7-2.6-0.9-3.9-0.5
	l-25.9,8.2L7.7,23.3z M84.3,48.4l-29.7,9.4c-0.7,0.2-1,0.9-0.8,1.6c0.4,1.2-0.3,2.6-1.5,3c-1.2,0.4-2.6-0.3-3-1.5c0,0,0,0,0,0
	c-0.2-0.7-0.9-1-1.6-0.8L18,69.4L4.7,27.3l1.6-0.5l12.6,39.8c0.2,0.7,0.9,1,1.6,0.8l27.1-8.6c1.2-0.4,2.6,0.3,3,1.5
	c0.2,0.7,0.9,1,1.6,0.8c0.7-0.2,1-0.9,0.8-1.6c-0.4-1.2,0.3-2.6,1.5-3l26.9-8.5c0.7-0.2,1-0.9,0.8-1.6L69.5,6.9L71,6.4L84.3,48.4z
	 M47.7,51.9l-9.5-30.1c-0.2-0.7,0.2-1.4,0.8-1.6c0.7-0.2,1.4,0.2,1.6,0.8l9.5,30c0.2,0.7-0.2,1.4-0.8,1.6
	C48.6,52.9,47.9,52.5,47.7,51.9L47.7,51.9z M46.4,19.3c-0.2-0.7,0.1-1.4,0.8-1.6c0,0,0,0,0.1,0l17.3-5.5c0.7-0.2,1.4,0.2,1.6,0.8
	c0.2,0.7-0.2,1.4-0.8,1.6L48,20.1C47.3,20.3,46.6,19.9,46.4,19.3L46.4,19.3z M48.6,26.2c-0.2-0.6,0.1-1.4,0.8-1.6c0,0,0,0,0.1,0
	l17.3-5.5c0.7-0.2,1.4,0.2,1.6,0.8c0.2,0.7-0.2,1.4-0.8,1.6L50.2,27C49.5,27.2,48.8,26.8,48.6,26.2L48.6,26.2z M53,40
	c-0.2-0.6,0.1-1.4,0.8-1.6c0,0,0,0,0.1,0L71,32.9c0.7-0.2,1.4,0.2,1.6,0.8s-0.2,1.4-0.8,1.6l-17.3,5.5C53.9,41,53.2,40.6,53,40
	L53,40z M50.8,33.1c-0.2-0.6,0.1-1.4,0.8-1.6c0,0,0,0,0.1,0L68.9,26c0.7-0.2,1.4,0.2,1.6,0.8c0.2,0.7-0.2,1.4-0.8,1.6l-17.3,5.5
	C51.7,34.1,51,33.7,50.8,33.1L50.8,33.1z M55.1,46.9c-0.2-0.7,0.2-1.4,0.8-1.6c0,0,0,0,0,0l11.9-3.8c0.7-0.2,1.4,0.2,1.6,0.8
	c0.2,0.7-0.2,1.4-0.8,1.6l-11.9,3.8C56.1,47.9,55.4,47.6,55.1,46.9C55.2,46.9,55.2,46.9,55.1,46.9L55.1,46.9z M32.4,23.7
	c0.2,0.7-0.2,1.4-0.8,1.6l-17.3,5.5c-0.7,0.2-1.4-0.2-1.6-0.8s0.2-1.4,0.8-1.6l17.3-5.5C31.4,22.7,32.1,23,32.4,23.7
	C32.3,23.7,32.4,23.7,32.4,23.7z M34.5,30.6c0.2,0.7-0.2,1.4-0.8,1.6l-17.3,5.5c-0.7,0.2-1.4-0.2-1.6-0.8c-0.2-0.7,0.2-1.4,0.8-1.6
	L33,29.8C33.6,29.6,34.3,29.9,34.5,30.6C34.5,30.6,34.5,30.6,34.5,30.6z M38.9,44.4c0.2,0.7-0.2,1.4-0.8,1.6l-17.3,5.5
	c-0.7,0.2-1.4-0.2-1.6-0.8c-0.2-0.7,0.2-1.4,0.8-1.6l17.3-5.5C38,43.4,38.7,43.8,38.9,44.4C38.9,44.4,38.9,44.4,38.9,44.4z
	 M36.7,37.5c0.2,0.7-0.2,1.4-0.8,1.6c0,0,0,0,0,0l-17.3,5.5c-0.7,0.2-1.4-0.2-1.6-0.8c-0.2-0.7,0.2-1.4,0.8-1.6l17.3-5.5
	C35.8,36.5,36.5,36.9,36.7,37.5L36.7,37.5z M40.8,51.4c0.2,0.7-0.2,1.4-0.8,1.6l-17,5.4c-0.7,0.2-1.4-0.2-1.6-0.8
	c-0.2-0.7,0.2-1.4,0.8-1.6l17-5.4C39.8,50.4,40.5,50.8,40.8,51.4z"/>
</svg>
