<?xml version="1.0" encoding="UTF-8"?>
<svg width="930px" height="492px" viewBox="0 0 930 492" version="1.1" xmlns="http://www.w3.org/2000/svg" xmlns:xlink="http://www.w3.org/1999/xlink">
    <title>Combined Shape Copy</title>
    <g id="Welcome" stroke="none" stroke-width="1" fill="none" fill-rule="evenodd" fill-opacity="0.4">
        <path d="M399,0 C455.339591,0 505.921541,24.6513867 540.548042,63.7563499 C555.408125,59.9953756 570.97104,58 587,58 C641.810995,58 691.172543,81.3318599 725.694571,118.605508 C741.592717,113.0324 758.692231,110 776.5,110 C861.275709,110 930,178.724291 930,263.5 C930,348.275709 861.275709,417 776.5,417 C749.234588,417 723.629506,409.891278 701.437058,397.426135 C669.676735,421.629008 630.01663,436 587,436 C570.444634,436 554.386425,433.871412 539.084127,429.872988 C504.507974,468.032171 454.55298,492 399,492 C340.863232,492 288.857288,465.750819 254.187341,424.45763 C233.870898,431.923168 211.911547,436 189,436 C84.6181823,436 0,351.381818 0,247 C0,142.618182 84.6181823,58 189,58 C211.43235,58 232.951918,61.9080806 252.914995,69.0805318 C287.571263,26.9027742 340.143892,0 399,0 Z" id="Combined-Shape-Copy" fill="#FFFFFF"></path>
    </g>
</svg>