<svg id="ICONS" xmlns="http://www.w3.org/2000/svg" viewBox="0 0 45.05 72.59"><defs><style>.cls-1{fill:#e9f8fa;}.cls-2{fill:#f7dd9c;}.cls-3{fill:#099bae;}</style></defs><path class="cls-1" d="M22.61,50a21,21,0,0,0,21-21H1.58A21,21,0,0,0,22.61,50Z"/><path class="cls-2" d="M24.57,50.56A19.56,19.56,0,0,0,44,32.53H5.1A19.56,19.56,0,0,0,24.57,50.56Z"/><path class="cls-3" d="M45.05,28.94a1.5,1.5,0,0,0-1.5-1.5H1.5A1.5,1.5,0,0,0,0,28.94a22.54,22.54,0,0,0,12.13,20L1.34,70.42a1.51,1.51,0,0,0,.67,2,1.63,1.63,0,0,0,.67.15A1.49,1.49,0,0,0,4,71.77L14.88,50.13a22.51,22.51,0,0,0,15.3,0L41,71.77a1.49,1.49,0,0,0,1.34.82,1.56,1.56,0,0,0,.67-.15,1.51,1.51,0,0,0,.67-2L32.92,48.91A22.52,22.52,0,0,0,45.05,28.94ZM22.53,48.47a19.55,19.55,0,0,1-19.47-18H42A19.56,19.56,0,0,1,22.53,48.47ZM.18,22.8a1.5,1.5,0,0,1,1.5-1.5H43.37a1.5,1.5,0,0,1,0,3H1.68A1.5,1.5,0,0,1,.18,22.8ZM32.64,60a1.51,1.51,0,0,1-1.5,1.5H13.92a1.5,1.5,0,0,1,0-3H31.14A1.5,1.5,0,0,1,32.64,60ZM11.17,13a2.21,2.21,0,0,0,0-3.44,5.17,5.17,0,0,1,0-7.4A3.08,3.08,0,0,0,11.89,1,1.5,1.5,0,0,1,14.75,2a5.9,5.9,0,0,1-1.32,2.13,2.21,2.21,0,0,0,0,3.44,5.17,5.17,0,0,1,0,7.4,2.26,2.26,0,0,0-.82,1.72,1.5,1.5,0,0,1-3,0A5.15,5.15,0,0,1,11.17,13ZM21.4,13a2.23,2.23,0,0,0,0-3.44,5.17,5.17,0,0,1,0-7.4A3.08,3.08,0,0,0,22.12,1,1.5,1.5,0,0,1,25,2a5.9,5.9,0,0,1-1.32,2.13,2.21,2.21,0,0,0,0,3.44,5.19,5.19,0,0,1,0,7.4,2.26,2.26,0,0,0-.82,1.72,1.5,1.5,0,0,1-3,0A5.15,5.15,0,0,1,21.4,13Zm10.23,0a2.23,2.23,0,0,0,0-3.44,5.17,5.17,0,0,1,0-7.4A3.08,3.08,0,0,0,32.35,1,1.5,1.5,0,0,1,35.21,2a5.9,5.9,0,0,1-1.33,2.13,2.23,2.23,0,0,0,0,3.44,5.17,5.17,0,0,1,0,7.4,2.29,2.29,0,0,0-.81,1.72,1.5,1.5,0,0,1-3,0A5.15,5.15,0,0,1,31.63,13ZM34.3,38.38a1.5,1.5,0,0,1,0,2.12,16.48,16.48,0,0,1-23.59,0,1.5,1.5,0,0,1,2.15-2.1,13.48,13.48,0,0,0,19.3,0A1.5,1.5,0,0,1,34.3,38.38Z"/></svg>