<svg id="ICONS" xmlns="http://www.w3.org/2000/svg" viewBox="0 0 53.87 65"><defs><style>.cls-1{fill:#e9f8fa;}.cls-2{fill:#f7dd9c;}.cls-3{fill:#099bae;}</style></defs><path class="cls-1" d="M36.52,63.91l-8.65-23a1.77,1.77,0,0,0-1-1,1.81,1.81,0,0,0-1,1l-8.65,23H12.05a2,2,0,0,1,0-4l1.4,0,5.63-18.63A11.38,11.38,0,0,0,19.54,38V25.47L5.09,20.35,8.28,10l0-.28V9.63A3.33,3.33,0,0,1,11.57,6.3a3.79,3.79,0,0,1,.88.11,3.34,3.34,0,0,1,1.75,5.26A3.37,3.37,0,0,1,11.55,13a4,4,0,0,1-.6,0L9.68,17.05c8.2,1.54,10.92,2,11.17,2.07a2.54,2.54,0,0,0,1.9-.89,2.56,2.56,0,0,0,.61-2.06,2.2,2.2,0,0,0-1-1.41A7.58,7.58,0,0,1,25.25,1.25a7.46,7.46,0,0,1,1.59-.16,7.57,7.57,0,0,1,4.48,13.67,2.2,2.2,0,0,0-1,1.41,2.59,2.59,0,0,0,2.56,2.95c.2,0,2.92-.53,11.12-2.07l-1.27-4.16a3.05,3.05,0,0,1-.6.06,3.37,3.37,0,0,1-2.65-1.28,3.33,3.33,0,0,1-.58-2.93,3.29,3.29,0,0,1,2.32-2.33,3.94,3.94,0,0,1,.89-.11,3.27,3.27,0,0,1,2,.7,3.32,3.32,0,0,1,1.28,2.73v.13l0,.14,3.19,10.35L34.17,25.47V38a11.38,11.38,0,0,0,.49,3.28l5.63,18.62h0l.11,0,1.25,0a2,2,0,1,1,0,4Z"/><path class="cls-2" d="M42.91,64H38.52L30.14,41.67A2.94,2.94,0,0,0,28.52,40a1,1,0,0,0-.85,0,2.92,2.92,0,0,0-1.61,1.66L17.68,64H13.29a.95.95,0,0,1,0-1.89l1.37,0a1,1,0,0,0,1.07-.77l5.62-18.62a12.22,12.22,0,0,0,.54-3.6V26.66a1.1,1.1,0,0,0-.73-1L7.68,20.86l2.88-9.38a1.24,1.24,0,0,0,0-.43l0-.23a2.22,2.22,0,0,1,.87-1.77,2.27,2.27,0,0,1,2-.39A2.21,2.21,0,0,1,15,10.21a2.25,2.25,0,0,1-.38,2,2.29,2.29,0,0,1-2.2.83,1.07,1.07,0,0,0-1.24.75L9.88,17.92a1.08,1.08,0,0,0,.11.88,1.09,1.09,0,0,0,.73.51C21.84,21.4,21.91,21.4,22,21.4a3.68,3.68,0,0,0,3.64-4.19,3.25,3.25,0,0,0-1.4-2.14A6.48,6.48,0,0,1,26.72,3.51a6.87,6.87,0,0,1,2.76,0,6.49,6.49,0,0,1,2.44,11.56,3.27,3.27,0,0,0-1.41,2.14,3.74,3.74,0,0,0,.87,2.93,3.69,3.69,0,0,0,2.78,1.26c.13,0,.2,0,11.31-2.09a1.07,1.07,0,0,0,.73-.51,1.08,1.08,0,0,0,.11-.88l-1.26-4.15A1.09,1.09,0,0,0,43.8,13a2.25,2.25,0,0,1-2.58-2.82,2.21,2.21,0,0,1,1.55-1.54,2.24,2.24,0,0,1,2,.39,2.22,2.22,0,0,1,.86,1.86v.14a1,1,0,0,0,0,.43l2.88,9.38L35.05,25.63a1.1,1.1,0,0,0-.72,1V39.17a12.55,12.55,0,0,0,.53,3.6l5.63,18.62a1.13,1.13,0,0,0,1.06.77l1.37,0a1,1,0,0,1,.93.95A.94.94,0,0,1,42.91,64Z"/><path class="cls-3" d="M41.66,58.77h-.57L35.7,41a10.37,10.37,0,0,1-.44-3V26.23L49,21.37A1.08,1.08,0,0,0,49.66,20L46.54,9.87a1.94,1.94,0,0,0,0-.24,4.38,4.38,0,0,0-1.72-3.49,4.41,4.41,0,0,0-6.19,6.19A4.37,4.37,0,0,0,42,14l.66,2.16c-4,.75-9.08,1.71-9.8,1.83a1.51,1.51,0,0,1-1.42-1.72,1.24,1.24,0,0,1,.54-.68A8.66,8.66,0,0,0,28.68.19,8.86,8.86,0,0,0,25,.19a8.66,8.66,0,0,0-3.28,15.44,1.24,1.24,0,0,1,.54.68A1.51,1.51,0,0,1,20.87,18c-.72-.12-5.81-1.08-9.8-1.83L11.73,14a4.37,4.37,0,0,0,3.33-1.71A4.41,4.41,0,0,0,8.87,6.14,4.37,4.37,0,0,0,7.16,9.63a2,2,0,0,0,0,.24L4.05,20a1.08,1.08,0,0,0,.68,1.34l13.72,4.86V38A10.27,10.27,0,0,1,18,41L12.62,58.78h-.57a3.12,3.12,0,1,0,0,6.23h5.14a1.09,1.09,0,0,0,1-.7l8.64-23.06h0L35.5,64.3a1.1,1.1,0,0,0,1,.7h5.14a3.12,3.12,0,1,0,0-6.23Zm0,4.06H37.27L28.89,40.48a2.89,2.89,0,0,0-1.61-1.66,1,1,0,0,0-.85,0,2.89,2.89,0,0,0-1.61,1.66L16.44,62.83H12.05a.95.95,0,0,1,0-1.89l1.38,0a1,1,0,0,0,1.06-.77l5.63-18.62a12.22,12.22,0,0,0,.54-3.6V25.47a1.1,1.1,0,0,0-.73-1L6.44,19.67l2.87-9.38a1.06,1.06,0,0,0,0-.43l0-.23a2.25,2.25,0,0,1,.87-1.78,2.29,2.29,0,0,1,2-.38A2.24,2.24,0,0,1,13.34,11a2.27,2.27,0,0,1-2.19.83,1.07,1.07,0,0,0-1.24.75L8.64,16.73a1.08,1.08,0,0,0,.11.88,1.09,1.09,0,0,0,.73.51c11.12,2.09,11.18,2.09,11.32,2.09A3.68,3.68,0,0,0,24.44,16,3.25,3.25,0,0,0,23,13.88,6.49,6.49,0,0,1,25.47,2.31a6.92,6.92,0,0,1,2.77,0,6.49,6.49,0,0,1,2.44,11.57A3.23,3.23,0,0,0,29.27,16a3.68,3.68,0,0,0,3.64,4.19c.14,0,.2,0,11.32-2.09a1.07,1.07,0,0,0,.73-.51,1.08,1.08,0,0,0,.11-.88L43.8,12.58a1.08,1.08,0,0,0-1.24-.75A2.27,2.27,0,0,1,40.37,11a2.24,2.24,0,0,1,1.15-3.53,2.23,2.23,0,0,1,2.85,2.25l0,.14a1.06,1.06,0,0,0,0,.43l2.87,9.38L33.81,24.44a1.1,1.1,0,0,0-.72,1V38a12.21,12.21,0,0,0,.53,3.6L39.25,60.2a1.14,1.14,0,0,0,1.06.77l1.36,0a.95.95,0,0,1,0,1.89ZM53.87,34.16A26.93,26.93,0,0,1,49,49.62a1.09,1.09,0,0,1-.89.46,1,1,0,0,1-.63-.2,1.08,1.08,0,0,1-.26-1.51A24.7,24.7,0,0,0,51.7,34.16a25.14,25.14,0,0,0-.41-4.51,1.09,1.09,0,0,1,.88-1.26,1.07,1.07,0,0,1,1.26.87A26.66,26.66,0,0,1,53.87,34.16ZM50,25.21a1.09,1.09,0,1,1,2-.78c.2.51.38,1,.55,1.55a1.09,1.09,0,0,1-.71,1.36,1,1,0,0,1-.33.06,1.1,1.1,0,0,1-1-.76C50.39,26.16,50.22,25.68,50,25.21ZM6.64,48.37a1.09,1.09,0,0,1-.27,1.51,1,1,0,0,1-.62.2,1.09,1.09,0,0,1-.89-.46A26.73,26.73,0,0,1,3.4,47.29a1.09,1.09,0,1,1,1.9-1.06C5.71,47,6.16,47.68,6.64,48.37Zm-3.48-4a1,1,0,0,1-.38.07,1.1,1.1,0,0,1-1-.7,27.09,27.09,0,0,1,.05-19.34,1.08,1.08,0,1,1,2,.78A24.94,24.94,0,0,0,3.79,43,1.08,1.08,0,0,1,3.16,44.4Z"/></svg>