<svg id="ICONS" xmlns="http://www.w3.org/2000/svg" viewBox="0 0 73.57 74.68"><defs><style>.cls-1{fill:#e9f8fa;}.cls-2{fill:#f7dd9c;}.cls-3{fill:#099bae;}</style></defs><path class="cls-1" d="M51.64,16.72A15.47,15.47,0,1,1,36.17,1.25,15.47,15.47,0,0,1,51.64,16.72ZM56.85,42.3A15.47,15.47,0,1,0,72.32,57.77,15.47,15.47,0,0,0,56.85,42.3Zm-40.13,0A15.47,15.47,0,1,0,32.19,57.77,15.47,15.47,0,0,0,16.72,42.3Z"/><path class="cls-2" d="M27.43,28.05a18.13,18.13,0,0,1,5.79-2,3.15,3.15,0,0,0,2.47-2.19,2.44,2.44,0,0,0-.87-2.67A4.73,4.73,0,0,1,33,18.08l-.67-4.45a5,5,0,0,1,1.81-4.75,4,4,0,0,1,2.35-.77h1.3a4,4,0,0,1,2.35.77A5,5,0,0,1,42,13.63l-.67,4.45a4.7,4.7,0,0,1-1.8,3.08,2.46,2.46,0,0,0-.86,2.67A3.15,3.15,0,0,0,41.12,26a18,18,0,0,1,5.78,2,14.15,14.15,0,0,1-19.47,0ZM8,69.35a18.28,18.28,0,0,1,5.79-2,3.15,3.15,0,0,0,2.47-2.19,2.44,2.44,0,0,0-.87-2.67,4.69,4.69,0,0,1-1.79-3.08l-.67-4.45a4.94,4.94,0,0,1,1.81-4.75,4,4,0,0,1,2.35-.77h1.3a4,4,0,0,1,2.35.77,5,5,0,0,1,1.81,4.75l-.67,4.45a4.68,4.68,0,0,1-1.8,3.08,2.44,2.44,0,0,0-.86,2.67,3.13,3.13,0,0,0,2.47,2.19,18.21,18.21,0,0,1,5.78,2A14.15,14.15,0,0,1,8,69.35Zm40.14,0a18.21,18.21,0,0,1,5.78-2,3.13,3.13,0,0,0,2.47-2.19,2.46,2.46,0,0,0-.86-2.67,4.7,4.7,0,0,1-1.8-3.08L53,54.93a5,5,0,0,1,1.81-4.75,4,4,0,0,1,2.35-.77h1.3a4,4,0,0,1,2.35.77,5,5,0,0,1,1.81,4.75L62,59.38a4.71,4.71,0,0,1-1.79,3.08,2.44,2.44,0,0,0-.87,2.67,3.15,3.15,0,0,0,2.47,2.19,18.19,18.19,0,0,1,5.79,2,14.15,14.15,0,0,1-19.47,0Z"/><path class="cls-3" d="M56.85,41.25a16.61,16.61,0,0,0-11,4.18l-8.33-6.2V33.37a16.74,16.74,0,1,0-2.5,0v5.85l-7.87,5.69A16.88,16.88,0,1,0,29,46.65l7.25-5.24,7.82,5.81a16.71,16.71,0,1,0,12.79-6ZM7,68.3a18,18,0,0,1,5.79-2,3.14,3.14,0,0,0,2.47-2.2,2.43,2.43,0,0,0-.87-2.66,4.69,4.69,0,0,1-1.79-3.08l-.67-4.45a4.94,4.94,0,0,1,1.81-4.75,4,4,0,0,1,2.35-.78h1.3a4,4,0,0,1,2.35.78,5,5,0,0,1,1.81,4.75l-.67,4.45a4.7,4.7,0,0,1-1.8,3.08,2.45,2.45,0,0,0-.86,2.66,3.13,3.13,0,0,0,2.47,2.2,18,18,0,0,1,5.78,2A14.15,14.15,0,0,1,7,68.3Zm21.16-1.91a20.46,20.46,0,0,0-7-2.59.89.89,0,0,1-.55-.38,7.11,7.11,0,0,0,2.78-4.72L24,54.25a7.48,7.48,0,0,0-2.82-7.15,6.5,6.5,0,0,0-3.81-1.25h-1.3a6.53,6.53,0,0,0-3.82,1.25,7.48,7.48,0,0,0-2.81,7.15l.66,4.45a6.92,6.92,0,0,0,2.75,4.65.67.67,0,0,1-.51.45,20.6,20.6,0,0,0-7,2.59A14.21,14.21,0,1,1,30.94,58,14.1,14.1,0,0,1,28.14,66.39Zm5.74-46.22a4.75,4.75,0,0,1-1.79-3.09l-.67-4.45a5,5,0,0,1,1.81-4.75,4,4,0,0,1,2.35-.77h1.3a4,4,0,0,1,2.35.77A5,5,0,0,1,41,12.63l-.67,4.45a4.72,4.72,0,0,1-1.8,3.09,2.44,2.44,0,0,0-.86,2.66A3.15,3.15,0,0,0,40.18,25a18.21,18.21,0,0,1,5.78,2,14.15,14.15,0,0,1-19.47,0,18.28,18.28,0,0,1,5.79-2,3.15,3.15,0,0,0,2.47-2.19A2.42,2.42,0,0,0,33.88,20.17ZM36.23,2.5A14.19,14.19,0,0,1,47.65,25.15a20.25,20.25,0,0,0-7-2.59.87.87,0,0,1-.55-.39,7.22,7.22,0,0,0,2.78-4.72L43.51,13a7.48,7.48,0,0,0-2.82-7.15,6.37,6.37,0,0,0-3.84-1.25H35.58a6.47,6.47,0,0,0-3.82,1.25A7.47,7.47,0,0,0,29,13l.67,4.44a7,7,0,0,0,2.74,4.65.65.65,0,0,1-.51.46,20.4,20.4,0,0,0-7,2.59A14.2,14.2,0,0,1,36.23,2.5ZM56.85,43.75A14.19,14.19,0,0,1,68.28,66.39a20.6,20.6,0,0,0-7.05-2.59.87.87,0,0,1-.54-.38,7.26,7.26,0,0,0,2.78-4.72l.66-4.45a7.48,7.48,0,0,0-2.81-7.15,6.72,6.72,0,0,0-3.85-1.25H56.2a6.5,6.5,0,0,0-3.81,1.25,7.48,7.48,0,0,0-2.82,7.15l.67,4.45A7,7,0,0,0,53,63.35a.65.65,0,0,1-.51.45,20.46,20.46,0,0,0-7,2.59A14.18,14.18,0,0,1,56.85,43.75ZM47.12,68.3a18,18,0,0,1,5.78-2,3.13,3.13,0,0,0,2.47-2.2,2.44,2.44,0,0,0-.86-2.66,4.7,4.7,0,0,1-1.8-3.08L52,53.88a5,5,0,0,1,1.81-4.75,4,4,0,0,1,2.35-.78h1.3a4,4,0,0,1,2.35.78,5,5,0,0,1,1.81,4.75L61,58.33a4.69,4.69,0,0,1-1.79,3.08,2.43,2.43,0,0,0-.87,2.66,3.14,3.14,0,0,0,2.47,2.2,18,18,0,0,1,5.79,2,14.15,14.15,0,0,1-19.47,0Z"/></svg>