<?xml version="1.0" encoding="utf-8"?>
<!-- Generator: Adobe Illustrator 25.4.1, SVG Export Plug-In . SVG Version: 6.00 Build 0)  -->
<svg version="1.1" id="ICONS" xmlns="http://www.w3.org/2000/svg" xmlns:xlink="http://www.w3.org/1999/xlink" x="0px" y="0px"
	 viewBox="0 0 69.2 82.7" style="enable-background:new 0 0 69.2 82.7;" xml:space="preserve">
<style type="text/css">
	.st0{fill:#E9F8FA;}
	.st1{fill:#EFBA32;}
	.st2{fill:#099BAE;}
</style>
<rect x="10.4" y="8.3" transform="matrix(0.9778 -0.2095 0.2095 0.9778 -7.8154 8.2288)" class="st0" width="49.1" height="65.5"/>
<path class="st1" d="M4.3,14.1l14,65.5l47.8-10.2l-14-65.5L4.3,14.1z M60.6,64.4l-39.2,8.4L10,19.8l39.2-8.4L60.6,64.4z"/>
<path class="st2" d="M52.1,2.4L3.9,12.8c-0.7,0.2-1.1,0.8-1,1.5c0,0,0,0,0,0l13.8,64.3c0.2,0.7,0.8,1.1,1.5,1c0,0,0,0,0,0l48.2-10.3
	c0.7-0.2,1.1-0.8,1-1.5l0,0L53.6,3.4C53.5,2.7,52.8,2.3,52.1,2.4z M64.6,67l-45.7,9.8L5.7,15l45.7-9.8L64.6,67z M21.8,74l39-8.4
	c0.7-0.2,1.1-0.8,1-1.5l-11.4-53c-0.1-0.7-0.8-1.1-1.5-1l-3.1,0.7L45.4,9c-0.2-0.7-0.9-1.1-1.6-0.9c-0.6,0.2-1,0.8-0.9,1.4l0.4,1.8
	l-27.7,5.9l-0.4-1.8c-0.2-0.7-0.9-1.1-1.6-0.9c-0.6,0.2-1,0.8-0.9,1.4l0.4,1.8l-3.1,0.7c-0.7,0.2-1.1,0.8-1,1.5l11.4,53
	C20.4,73.7,21.1,74.2,21.8,74z M43.8,13.8l0.5,2.1l-27.7,5.9l-0.5-2.1L43.8,13.8z M11.7,20.7l1.9-0.4l0.7,3.4c0.2,0.7,0.8,1.1,1.5,1
	c0,0,0,0,0,0l30.2-6.5c0.7-0.2,1.1-0.8,1-1.5l-0.7-3.4l1.9-0.4L59,63.4l-36.5,7.8L11.7,20.7z M17.1,31.7c-0.2-0.7,0.3-1.4,0.9-1.6
	c0,0,0,0,0,0l28.1-6c0.7-0.1,1.4,0.4,1.5,1.1c0.1,0.6-0.3,1.2-0.9,1.4l-28.1,6C18,32.8,17.3,32.4,17.1,31.7L17.1,31.7z M40.3,37.8
	c0.2,0.7-0.3,1.4-1,1.5l-18.4,3.9c-0.7,0.1-1.4-0.4-1.5-1.1c-0.1-0.6,0.3-1.2,0.9-1.4l18.4-3.9C39.5,36.6,40.1,37.1,40.3,37.8z
	 M42.6,48.7c0.2,0.7-0.3,1.4-1,1.5l-18.4,3.9c-0.7,0.1-1.4-0.4-1.5-1.1c-0.1-0.6,0.3-1.2,0.9-1.4l18.4-3.9
	C41.8,47.6,42.5,48,42.6,48.7z M45,59.7c0.2,0.7-0.3,1.4-1,1.5l-18.4,3.9c-0.7,0.1-1.4-0.4-1.5-1.1c-0.1-0.6,0.3-1.2,0.9-1.4
	l18.4-3.9C44.2,58.5,44.8,59,45,59.7z M49.7,33c0.6,0.4,0.8,1.2,0.4,1.8c0,0,0,0,0,0l-2.8,4.4c-0.2,0.3-0.5,0.5-0.8,0.6
	c-0.3,0.1-0.7,0-1-0.2L43,38c-0.6-0.4-0.8-1.2-0.4-1.8c0,0,0,0,0,0c0.4-0.6,1.2-0.8,1.8-0.4l1.2,0.8l2.2-3.2
	C48.2,32.7,49,32.5,49.7,33C49.6,32.9,49.6,32.9,49.7,33z M52,43.9c0.6,0.4,0.8,1.2,0.4,1.8c0,0,0,0,0,0l-2.8,4.4
	c-0.2,0.3-0.5,0.5-0.8,0.6c-0.3,0.1-0.7,0-1-0.2l-2.4-1.5c-0.6-0.4-0.8-1.2-0.4-1.8c0.4-0.6,1.2-0.8,1.8-0.4l1.2,0.8l2.2-3.2
	C50.6,43.7,51.4,43.5,52,43.9C52,43.9,52,43.9,52,43.9z M54.3,54.8c0.6,0.4,0.8,1.2,0.4,1.8c0,0,0,0,0,0L51.9,61
	c-0.2,0.3-0.5,0.5-0.8,0.6c-0.3,0.1-0.7,0-1-0.2l-2.4-1.5c-0.6-0.4-0.8-1.2-0.4-1.8c0.4-0.6,1.2-0.8,1.8-0.4l1.2,0.8l2.2-3.2
	C52.9,54.6,53.7,54.4,54.3,54.8C54.3,54.8,54.3,54.8,54.3,54.8z"/>
</svg>
