<svg id="ICONS" xmlns="http://www.w3.org/2000/svg" viewBox="0 0 74.48 68.46"><defs><style>.cls-1{fill:none;}.cls-1,.cls-2{fill-rule:evenodd;}.cls-2{fill:#f7dd9c;}.cls-3{fill:#099bae;}</style></defs><path class="cls-1" d="M11.91,40.17,8.64,36.12a19.52,19.52,0,0,1-3.48-18.5,20.18,20.18,0,0,1,6.61-9.28A19.87,19.87,0,0,1,38.1,10l.47.47.21-.2a20.34,20.34,0,0,1,14-6.11A19.75,19.75,0,0,1,67.2,10a20.15,20.15,0,0,1,3.42,4.6,19.89,19.89,0,0,1-2.39,22l-2.71,3.28-.61.61L38.57,66.89Z"/><path class="cls-2" d="M13.79,41l-3.17-3.92A18.9,18.9,0,0,1,7.25,19.14a19.47,19.47,0,0,1,6.41-9,18.86,18.86,0,0,1,9.41-3.94,19.22,19.22,0,0,1,16.1,5.51l.46.46.2-.2A19.75,19.75,0,0,1,53.41,6.06a19.1,19.1,0,0,1,15,31.48l-2.63,3.18-.59.58L39.63,66.89Z"/><path class="cls-3" d="M65.54,40a2,2,0,0,1-1.41-3.42l.85-.85a2,2,0,1,1,2.83,2.83l-.86.85A2,2,0,0,1,65.54,40Z"/><path class="cls-3" d="M37,68.46a2,2,0,0,1-1.42-.58L8.3,40.55a2,2,0,1,1,2.83-2.83L37,63.63,60.39,40.14A2,2,0,0,1,63.22,43L38.38,67.88A2,2,0,0,1,37,68.46Z"/><path class="cls-3" d="M69.77,34.73a2,2,0,0,1-1-.26A2,2,0,0,1,68,31.74,18.61,18.61,0,0,0,38.67,9.43a2,2,0,0,1-2.83,0,18.71,18.71,0,0,0-26.36,0A18.4,18.4,0,0,0,6.16,31.16,2,2,0,1,1,2.62,33a22.39,22.39,0,0,1,4-26.44A22.73,22.73,0,0,1,37.25,5.3,22.61,22.61,0,0,1,71.51,33.73,2,2,0,0,1,69.77,34.73Z"/><path class="cls-3" d="M37,68.46a2,2,0,0,1-1.42-.58L8.3,40.55a2,2,0,1,1,2.83-2.83L37,63.63,60.39,40.14A2,2,0,0,1,63.22,43L38.38,67.88A2,2,0,0,1,37,68.46Z"/><path class="cls-3" d="M69.77,34.73a2,2,0,0,1-1-.26A2,2,0,0,1,68,31.74,18.61,18.61,0,0,0,38.67,9.43a2,2,0,0,1-2.83,0,18.71,18.71,0,0,0-26.36,0A18.4,18.4,0,0,0,6.16,31.16,2,2,0,1,1,2.62,33a22.39,22.39,0,0,1,4-26.44A22.73,22.73,0,0,1,37.25,5.3,22.61,22.61,0,0,1,71.51,33.73,2,2,0,0,1,69.77,34.73Z"/></svg>