<?xml version="1.0" encoding="utf-8"?>
<!-- Generator: Adobe Illustrator 25.4.1, SVG Export Plug-In . SVG Version: 6.00 Build 0)  -->
<svg version="1.1" id="Layer_1" xmlns="http://www.w3.org/2000/svg" xmlns:xlink="http://www.w3.org/1999/xlink" x="0px" y="0px"
	 viewBox="0 0 1569 684.8" style="enable-background:new 0 0 1569 684.8;" xml:space="preserve">
<style type="text/css">
	.st0{fill-rule:evenodd;clip-rule:evenodd;fill:#BAE5EC;}
	.st1{fill-rule:evenodd;clip-rule:evenodd;fill:#A8DEE6;}
	.st2{fill-rule:evenodd;clip-rule:evenodd;fill:#F1E7D2;}
	.st3{fill:#F2BCA7;}
	.st4{fill:#FEA82E;}
	.st5{fill:#E5830E;}
	.st6{fill:#D8683B;}
	.st7{fill:#0D8484;}
	.st8{fill:#CC3B09;}
	.st9{fill:#EDA691;}
	.st10{fill:#EF9267;}
	.st11{fill:#FCF9EB;}
	.st12{fill:none;stroke:#B7ABA0;stroke-width:7;stroke-miterlimit:10;}
	.st13{fill:#FCD430;}
	.st14{fill:#B7ABA0;}
	.st15{fill:none;stroke:#B7ABA0;stroke-width:3;stroke-miterlimit:10;}
	.st16{fill:#592A1C;}
	.st17{fill:#2D828E;}
	.st18{fill:none;stroke:#D8683B;stroke-width:5;stroke-miterlimit:10;}
	.st19{fill:none;stroke:#B7ABA0;stroke-width:6.41;stroke-miterlimit:10;}
	.st20{fill:#F0BB5B;}
	.st21{fill:#4499AB;}
	.st22{fill:#FAF7E9;}
	.st23{fill:#26140A;}
	.st24{fill:#89462C;}
	.st25{fill:none;stroke:#FFFFFF;stroke-width:8;stroke-miterlimit:10;}
	.st26{fill:#F5BB9C;}
	.st27{fill:#946155;}
	.st28{fill:#E2BD90;}
	.st29{fill:#FAF0F0;}
	.st30{fill:#3E210F;}
	.st31{fill:#E57149;}
	.st32{fill:#E89268;}
</style>
<g id="Layer_6">
	<g id="Welcome_00000088098804845353504950000016000691001355327899_">
		
			<g id="Group-11-Copy-2" transform="translate(242.500000, 292.500000) scale(-1, 1) translate(-242.500000, -292.500000) translate(0.000000, 0.000000)">
			<g id="Mask_00000176734903381405207700000016959393531653078405_">
			</g>
			<g id="Group-11">
				<g transform="translate(26.000000, -69.000000)">
					<g id="Group-3_00000159446712530442000870000004286212861503976623_">
						<g id="Clip-2_00000034784882363287442630000005663170820335908287_">
						</g>
						<path id="Fill-1_00000026873712094448388100000006712470332074249614_" class="st0" d="M474.4,430
							c-30.4,0.1-60.8,0.1-91.2,0.1c0.2-67.7,0.1-135.3,0.1-203c14.7,0,29.4,0,44.1,0h0.3c28.9,0,52.3-23.3,52.3-52.2
							c0.2-39.1,0-78.1,0.1-117.1c0-2.8-0.6-3.7-3.5-3.7c-35.3,0.1-70.5-0.1-105.8,0.1c-26.9,0.4-49.1,21.6-50.7,48.5
							c-0.7,19.1-0.2,38.2-0.2,57.3c-72.1,0-144.3-0.2-216.4,0.2c-69.1,1-125.7,55.2-129.6,124.1c-1.9,51.1-0.4,102.3-0.4,153.5
							h-0.4c0,51.5,0.2,103.1-0.2,154.6c-0.1,8.9,2.5,10.8,11,10.8c11.3-0.1,22.6-0.1,33.9-0.1c0,13.3,0.2,26.7,0.2,40h-0.2
							c0,20.1,0.1,40.3-0.1,60.4c0,3.4,0.9,4.3,4.4,4.3c34.4-0.1,68.9-0.1,103.3-0.1h0.4c28.9,0,52.3-23.3,52.3-52.2
							c0.1-17.5,0.1-34.9,0.1-52.4c15,0,30.1,0,45.1,0v1.1c0,32.2,0.2,64.5-0.2,96.9c0,5.6,1.6,6.8,6.9,6.8
							c55.3-0.2,110.4-0.2,165.6-0.2h0.5c46.3,0,83.9-37.4,83.9-83.7c0.3-62.6,0-125.2,0.2-187.8C480.1,431.6,479.3,430,474.4,430"
							/>
					</g>
					<g id="Group-10" transform="translate(40.790123, 98.914013)">
						<path id="Fill-4" class="st1" d="M337.7,332.1c-0.3,0-0.6-0.1-1-0.1c-35,0.1-70.1-0.1-105.1,0.1
							c-26.9,0.4-48.8,21.5-50.3,48.4c-0.6,15.8-0.4,31.7-0.2,47.5c-0.2,12.3-0.2,24.6-0.1,36.9c0,10.6,0,34.4,0,39.7h1.9
							c0.6,0.2,1.3,0.2,2.2,0.2c34.3-0.1,68.4-0.1,102.7-0.1h0.3c28.7,0,51.9-23.3,51.9-52.1c0.2-39,0-78,0.1-117
							c0-0.7-0.1-1.4-0.2-1.9v-1.7H337.7"/>
						<path id="Fill-6" class="st1" d="M331.2,62.2c-18,0.1-36,0.1-54,0.1c0,0.8,0,1.8,0,2.6H277c0,20.1,0.1,40.2-0.1,60.3
							c0,3.4,0.9,4.2,4.3,4.2c19.6-0.1,39.3-0.1,58.8-0.1c0-19.2,0-38.3,0.1-57.6C340.2,64.8,338.9,62.2,331.2,62.2"/>
						<path id="Fill-8" class="st1" d="M132.7,436.4c-35,0.1-70.1-0.1-105.1,0.1c-26.9,0.4-48.8,21.5-50.4,48.4
							c-0.3,6.7-0.3,13.3-0.4,20c53.1-0.2,106.1-0.2,159.3-0.2c0-21.6,0-43.1,0-64.6C136.2,437.4,135.7,436.4,132.7,436.4"/>
					</g>
				</g>
			</g>
		</g>
	</g>
</g>
<g id="Layer_1_00000176039197216107133320000002351818015842204570_">
	<g id="Welcome">
		<g id="Group-3-Copy">
			<g id="Mask">
			</g>
			<g id="Group-3">
				<g transform="translate(-39.000000, 71.000000)">
					<g id="Clip-2">
					</g>
					<path id="Fill-1" class="st2" d="M251.8,998.1c-109.9-67.3-208-45.5-178.9-123.3s70.2-56,23-106S-49.5,639.1,30.2,577.3
						c79.8-61.7,357.6-115.9,677.4-109c319.9,6.8,326.1,47.7,482.4,34.7s362.2-2.7,449.4,48.5c87.2,51.2-134.5,86.6-112.7,157.8
						s215.2,179,134.8,234.9c-80.3,55.9-206.4,103.6-343.3,66.1S979.4,960.8,851.4,983C723.5,1005.2,382.6,1078.3,251.8,998.1"/>
				</g>
			</g>
		</g>
	</g>
</g>
<g id="Layer_7">
	<g id="Welcome_00000005988468057263650820000005689152262947848862_">
		<g id="Group-11-Copy-2_00000116929245970632148490000006272999030456436365_" transform="translate(0.706667, 0.000000)">
			<g id="Mask_00000164494045268017338570000004159785844580393604_">
			</g>
			<g id="Group-11_00000171722222470663525270000003679781160923100326_">
				<g transform="translate(70.293333, -205.000000)">
					<g id="Group-3_00000156583141925097449510000013969409518724561558_">
						<g id="Clip-2_00000005231276127969390070000013945196531705123982_">
						</g>
						<path id="Fill-1_00000106862496897076551820000014774201607502043024_" class="st0" d="M1623.3,205.5c-28.7,0.1-57.4,0.1-86,0
							c0.1-63.9,0.1-127.8,0.1-191.6c13.9,0,27.7,0,41.6,0h0.3c27.2,0,49.3-22.1,49.3-49.3c0.1-36.9,0-73.7,0.1-110.6
							c0-2.6-0.5-3.5-3.3-3.5c-33.2,0.1-66.5-0.1-99.7,0.1c-25.4,0.4-46.3,20.3-47.7,45.8c-0.7,18-0.2,36.1-0.2,54.1
							c-68,0-136-0.2-204.1,0.2c-65.2,0.9-118.5,52.1-122.2,117.2c-1.8,48.3-0.4,96.6-0.4,144.9h-0.4c0,48.6,0.2,97.3-0.2,146
							c-0.1,8.3,2.3,10.2,10.4,10.2c10.7,0,21.3-0.1,32-0.1c0,12.6,0.2,25.2,0.2,37.7h-0.1c0,19,0.1,38-0.1,57c0,3.3,0.9,4,4.1,4
							c32.5-0.1,64.9-0.1,97.4-0.1h0.3c27.2,0,49.3-22.1,49.3-49.3c0.1-16.5,0.1-33,0.1-49.5c14.2,0,28.3,0,42.5,0v1.1
							c0,30.5,0.1,60.9-0.1,91.4c0,5.2,1.5,6.4,6.5,6.4c52.1-0.2,104.1-0.1,156.2-0.1h0.4c43.7,0,79.1-35.4,79.1-79
							c0.2-59.1,0-118.2,0.2-177.3C1628.6,207.1,1627.8,205.5,1623.3,205.5"/>
					</g>
					<g id="Group-10_00000063629844269329925110000006623854524239211404_" transform="translate(35.125828, 86.482051)">
						<path id="Fill-4_00000036230621306789860240000016272161072155019451_" class="st1" d="M1498.3,120.5c-0.3,0-0.6,0-0.9,0
							c-33.1,0.1-66.2-0.1-99.3,0.1c-25.4,0.4-46.1,20.3-47.6,45.6c-0.5,14.9-0.3,29.8-0.2,44.7c-0.2,11.6-0.1,23.2-0.1,34.8
							c0,9.9,0,32.3,0,37.4h1.8c0.6,0.2,1.2,0.2,2.1,0.2c32.4-0.1,64.7-0.1,97-0.1h0.3c27.1,0,49.1-22,49.1-49.1
							c0.1-36.7,0-73.4,0.1-110.2c0-0.7,0-1.3-0.2-1.8v-1.7L1498.3,120.5"/>
						<path id="Fill-8_00000090258966879802371370000016478811847398487429_" class="st1" d="M1304.6,218.8
							c-33.1,0.1-66.2-0.1-99.3,0.1c-25.4,0.4-46.1,20.3-47.6,45.6c-0.2,6.3-0.3,12.5-0.3,18.8c50.2-0.1,100.3-0.1,150.5-0.1
							c0-20.3,0-40.6,0-60.9C1307.9,219.7,1307.4,218.8,1304.6,218.8"/>
					</g>
				</g>
			</g>
		</g>
	</g>
</g>
<g id="Layer_2_00000116948611584764516540000007377487498196970167_">
	<path class="st3" d="M1451.7,610.6c0,0,7.3,8.5,7.4,10.8s-2,6.3,0.4,7.6s4.3,0,10.8,0.3c6.4,0.3,15.4,1.7,16.6,0.6
		c1.2-1.1-1.5-2.9-6.6-5.1c-5.1-2.2-13.1-9.1-13.7-11.4s-4.4-8.7-5.3-9.5C1460.5,603.1,1451.7,610.6,1451.7,610.6z"/>
	<path class="st3" d="M1451.7,602.1c0,0,8.9,6.8,9.5,9s-0.6,6.6,2,7.4c2.6,0.8,4.3-0.9,10.6-2s15.4-1.6,16.4-2.9
		c0.9-1.3-2.1-2.5-7.5-3.6s-14.8-6.2-15.8-8.3s-6.1-7.6-7.1-8.2C1458.8,593,1451.7,602.1,1451.7,602.1z"/>
	<polygon class="st4" points="1398.1,512.3 1416.3,529.8 1437.3,505.8 1421.2,489.6 	"/>
	<polygon class="st5" points="1439.4,508.1 1437.3,490.7 1429.9,499.4 	"/>
	<polygon class="st5" points="1437.3,505.8 1439.4,508.1 1419.4,530.7 1416.3,529.8 	"/>
	<path class="st6" d="M1310.2,468.3c0,0-11.5,1.7-13.2,6.1s-28.8,94.9-12.1,119.3c16.7,24.4,35.7,50.5,94.4,47.9s60.9-15.9,66.6-49
		s-41.3-25-53.4-18.1c0,0-20.7-17.4-35.1-12.2C1357.4,562.4,1352.8,470.9,1310.2,468.3z"/>
	<path class="st7" d="M1320.8,534.2c0,0,25.9-9.6,77.8,8.3s69.8,56.7,69.8,56.7s-20.9,18.5-26.2,17.9c-5.3-0.6-49.5-38.2-56.4-39.7
		s-24.8,9.2-43.8,8.6C1322.9,585.4,1310.7,550.3,1320.8,534.2z"/>
	<path class="st8" d="M1377.5,450.9c0,0-7.5-5.8-14.2-6.3s-15.6-1.4-20.5,10.3c-3.4-1.6-7.3-1.6-10.8-0.1
		c-5.7,2.5-17.1,11-15.5,17.5c1.5,6.6,6.1,12.1,7.5,18s1.3,9.5,0.4,15.3s-1.6,7.7,1.8,7.4c3.4-0.4,17-6.7,16.3-17.4
		c-0.7-10.7-3.2-16.6-3.2-21.5s-1.6-11,0.1-12.7s3-2,3.1-1.1s-2.5,6.3,0.9,11.2s8.4,6.3,11,5.7
		C1357,476.5,1382.6,455.6,1377.5,450.9z"/>
	<path class="st9" d="M1366.4,479.2c-0.3,3,0,6.1,1,9c1.6,5.3-17.4-2.5-17.4-2.5s5.3-12.9,7.5-17.3
		C1359.7,463.9,1366.4,479.2,1366.4,479.2z"/>
	<path class="st3" d="M1375.6,454.2c-0.3,3.2-0.4,6.4-0.3,9.7c0.2,2.2,2.6,5.1,2.1,6.3c-0.4,1.2-3.3,1.2-3.1,2.6s2.8,5.1,0.7,6.1
		c-2.1,1.1-11.5,2.3-16.3-5.9c-4.8-8.1-1-8.4,1-9.2C1361.7,463.1,1368.1,450.7,1375.6,454.2z"/>
	<path class="st6" d="M1292,575.4c0,0,52.1-7.8,80,17.1c27.9,24.9-59.4,10.5-69.1,4.6C1293.1,591.3,1292,575.4,1292,575.4z"/>
	<path class="st10" d="M1390.7,548.4c0,0,14.2-4.2,22.1-15.1c0,0,9.8-1.2,12.6-6.2c2.8-5-1.9-8.9-1.9-8.9s2.9-5.4,1.7-5.4
		c-1.2,0-11.4,4.6-14.5,10.7c-3.2,6.1-20.1,7.8-24.9,16.5S1390.7,548.4,1390.7,548.4z"/>
	<path class="st11" d="M1378,496.2c-0.4,8.4,11.3,21.4,14.2,26c2.9,4.6,5,7.8,4.8,12.3c-0.2,4.6-2.3,16.5-9,17.3
		s-7.1-18.8-10.5-19.1c-3.5-0.4,2.2,23.9-11.4,27.3s-48.8-6.9-50.2-9s0.5-60.9,32-63.7C1359.7,486.1,1378.4,489.4,1378,496.2z"/>
	<polyline class="st12" points="1265,407 1265,475.4 1265,635 	"/>
	<line class="st12" x1="1231.5" y1="474.8" x2="1265" y2="474.8"/>
	<line class="st12" x1="1265" y1="440.4" x2="1298.6" y2="440.4"/>
	<circle class="st13" cx="1237.7" cy="450.7" r="16.2"/>
	<path class="st14" d="M1251.7,458.8c-4.5,7.7-14.4,10.4-22.1,5.9c-2.5-1.4-4.5-3.5-5.9-5.9H1251.7z"/>
	<circle class="st13" cx="1289.3" cy="417.6" r="16.2"/>
	<path class="st14" d="M1303.3,425.7c-4.5,7.7-14.4,10.4-22.1,5.9c-2.5-1.4-4.5-3.5-5.9-5.9H1303.3z"/>
	<line class="st12" x1="1248.9" y1="634.6" x2="1280.9" y2="634.6"/>
	<line class="st12" x1="1237.7" y1="462.8" x2="1237.7" y2="474.8"/>
	<line class="st12" x1="1289.3" y1="429.3" x2="1289.3" y2="441.3"/>
</g>
<g id="Layer_3">
	<line class="st15" x1="530.8" y1="606.5" x2="558.9" y2="624.2"/>
	<rect x="551.8" y="622.6" class="st14" width="17.5" height="6.5"/>
	<path class="st16" d="M544.2,586.8c0,0,12.1,30.3,15.7,32.6c3.6,2.4,6.4,3.1,3.3-9.7c-3-12.8-5.7-23.4-9-24.5
		C550.9,584.2,544.2,586.8,544.2,586.8z"/>
	<path class="st17" d="M502.8,495.8c0,0,14.4,38.4,17.7,41.8s1,4,2,9.4c1,5.3,18.7,46.8,20.4,48.4c1.7,1.7,16-6.3,16-8.4
		c0-2-23.7-80.4-19.7-86.5C543.9,493.5,502.8,495.8,502.8,495.8z"/>
	<line class="st18" x1="600.7" y1="481.2" x2="649.1" y2="587.6"/>
	<polyline class="st18" points="620.5,522.8 530.8,606.1 457.7,589.6 	"/>
	<line class="st18" x1="499.3" y1="504.4" x2="611.3" y2="504.7"/>
	<line class="st18" x1="499.3" y1="504.4" x2="457.7" y2="589.6"/>
	<rect x="476.7" y="501.4" class="st14" width="42.1" height="6.5"/>
	<rect x="579.6" y="478" class="st14" width="42.1" height="6.5"/>
	<rect x="515.1" y="589.6" class="st14" width="17.5" height="6.5"/>
	<circle class="st14" cx="457.7" cy="586.9" r="9.2"/>
	<circle class="st14" cx="649.1" cy="586.9" r="9.2"/>
	<circle class="st12" cx="457.1" cy="588.1" r="51.6"/>
	<circle class="st19" cx="530.8" cy="606.5" r="10.4"/>
	<circle class="st12" cx="649.1" cy="588.1" r="51.6"/>
	<path class="st16" d="M553.2,451.4c0,0,15.4,17,26.7,20.7c0,0,3.7,8,8.7,9s7-4,7-4s5.3,1,5,0s-7-8.3-13-9.4s-20-21-28.7-22.7
		S553.2,451.4,553.2,451.4z"/>
	<path class="st20" d="M512.1,581.7c0,0-3.2,4.9,0,6.4s16.3,3.3,22.5,3.3c6.1,0-2-2-3.8-2.8c-1.8-0.7-6.7-1.9-8.3-3.6
		C519.8,582.2,515.9,581,512.1,581.7z"/>
	<path class="st16" d="M532.5,552c0,0-20.4,28.7-20.4,29.7s5.3,4,6.7,3.7s23-26.4,23.7-30.7C543.2,550.3,532.5,552,532.5,552z"/>
	<path class="st21" d="M496.6,449.4c0,0-8.4,20.4-8.4,29.1s1.3,27.1,22,28.7s38.1,1.7,46.8,0s-34.2,41.4-30,47.8s9.9,12.4,15.3,12
		s47.7-61.5,47.7-66.5s-17.7-17.4-32-20c-14.3-2.7-26.4-3.7-27.1-5c-0.7-1.3,2-18,2-19.4C533.1,454.7,496.6,449.4,496.6,449.4z"/>
	<path class="st22" d="M543.5,411c0,0,8.2,5.6,7.3,13.3c-0.9,7.7-2.6,9.7-2.4,11c0.2,1.3,11.5,7.3,13.2,10.7s1,14.4-5,13.7
		c-6-0.7-17.3-8.3-17.3-8.3s1,6.1-3.7,8.4s-41.5-1.7-41.3-10.8s9.6-45.8,28.3-43.4C541.2,407.9,543.5,411,543.5,411z"/>
	<path class="st23" d="M550.4,378.4c0,0-6.1-5.8-11.9-7c-5.8-1.2-13.7-2.8-19.2,7c-2.9-1.7-6.3-2.1-9.5-1.2
		c-5.3,1.7-16.2,8-15.5,13.9s4.2,11.3,4.8,16.6s0.2,8.5-1.2,13.5c-1.3,5-2.2,6.7,0.8,6.7s15.7-4.1,16.2-13.7s-1.2-15-0.7-19.4
		s-0.3-9.9,1.3-11.2c1.7-1.3,2.8-1.5,2.8-0.7s-2.8,5.3-0.3,10s6.8,6.5,9.1,6.1C529.6,398.9,554.4,383,550.4,378.4z"/>
	<path class="st16" d="M537.6,402.3c-0.6,2.6-0.6,5.4,0,8c0.9,4.8-15.1-4-15.1-4s6-10.8,8.4-14.5C533.2,388,537.6,402.3,537.6,402.3
		z"/>
	<path class="st24" d="M548.3,381.1c-0.6,2.8-1,5.7-1.3,8.5c0,2,1.8,4.8,1.3,5.8s-3,0.7-3,2s2,4.8,0,5.5s-10.4,0.8-13.8-6.8
		c-3.3-7.7,0-7.5,1.8-8C535.2,387.6,542,377.2,548.3,381.1z"/>
	<path class="st20" d="M559.9,619.4c0,0-2.5,3.2-1,4.7s12.8,5.8,18.5,4.8s1-2-1.8-3s-9-7.1-11.4-7.4
		C562.8,618.4,561.2,618.7,559.9,619.4z"/>
</g>
<g id="Layer_4">
	<path class="st7" d="M240.4,353.4c0.8,1.6-2,68.3-3.8,57.9c-1.7-10.4,2.1-51.4,0-55.3c0,0-3.4-6-4.7-6
		C230.6,349.9,237.1,346.5,240.4,353.4z"/>
	<path class="st7" d="M237.5,376c4.3-7,9.9-13.2,16.5-18c0,0,6.3-6.9,6.3-11c0,0,10.1,6.3,2.3,14.5
		C254.8,369.7,252.3,375.2,237.5,376z"/>
	<path class="st7" d="M238.9,382.5c0,0-3.5-4.6-9-10.6c-2.3-2.6-3.7-5.9-3.6-9.4c0-0.8,0.1-1.5,0.3-2.2c0,0-12.5,4.6-8,11.1
		C223.2,377.9,227.7,378.3,238.9,382.5z"/>
	<path class="st6" d="M212.5,382.2c0,0,7.6,2.1,8.7,8.8c1.1,6.6-8.2,19.2-4.4,29.8c3.8,10.6,35.1,9.7,43.2,6
		c8.2-3.7-7.6-26-6.3-32.5c1.1-6.5,6.3-10.3,6.3-12.1C260.1,380.4,218.3,380.7,212.5,382.2z"/>
	<path class="st4" d="M238.3,354.9c0,0-7.9-10.7-9-23.7C229.3,331.2,246.6,334,238.3,354.9z"/>
	<path class="st4" d="M236.6,354.4c0,0,9.5-9.4,12.6-21.9C249.2,332.4,231.8,332.4,236.6,354.4z"/>
	<path class="st4" d="M219.7,336.5c0,0,12,5.6,19.2,16.5C238.9,353,222.6,358.9,219.7,336.5z"/>
	<rect x="74.6" y="296.9" class="st25" width="224" height="133.7"/>
	<path class="st26" d="M140.8,628.1v23.1c0,0,10.8,0.9,11.2,0c0.4-0.9,0-21,0-21L140.8,628.1z"/>
	<path class="st26" d="M172.7,628.1v23.1c0,0,10.8,0.9,11.2,0c0.4-0.9,0-21,0-21L172.7,628.1z"/>
	<path class="st27" d="M140.4,647.1c0,1.6,0.5,2,0,4.5c-0.5,2.4,0.7,4.6,0,5.8s11.3,2.4,12,1.4c0.7-0.9,0-11.7,0-11.7L140.4,647.1
		L140.4,647.1z"/>
	<path class="st6" d="M137.3,500.4c0,0-3.9,119.3,0,128c3.9,8.7,13.9,11,17.2,8.7c3.4-2.3,4.8-90.1,4.8-90.1s4.8,85.3,9.1,88.2
		s21.1,4.2,21.1,2.8s2.3-137.1-2.4-137.5C182.3,500,137.3,500.4,137.3,500.4z"/>
	<path class="st26" d="M186.2,433.2c-2.7,13.6-2.7,27.7,0,41.2c4.5,22.4,11.2,52.1,12.8,54.7c1.5,2.7,0,11.2,4.5,10.2
		c4.5-1,6.7-5.7,3.5-12.8c-3.2-7-4.5-53.4-4.8-64.5s1.2-29.3-2.2-31.4C196.4,428.5,188.7,426.7,186.2,433.2z"/>
	<path class="st26" d="M124.8,435.1c0,0-10.6,24.6-10.6,29.7c0,5.1-0.9,9.8,5.3,13.3c6.2,3.6,22.7,8.7,28.2,8.7s-2.4-13.1-2.4-13.1
		s-18.6-0.3-18.6-3.2s7.1-23.7,8.7-31.9C136.9,430.3,124.8,435.1,124.8,435.1z"/>
	<path class="st28" d="M182.5,364.5c0,0,3.9,22.7,0,24.6c-3.9,1.9-6.4-1.2-7.7,2.6c-1.2,3.8-0.9,7.7-1.9,8
		c-0.9,0.3-21.7-1.6-21.7-1.6l12.5-33.6C163.6,364.5,171,353.3,182.5,364.5z"/>
	<path class="st23" d="M174.3,369.6v5.4c0,6.1,0.3,11.8-2.6,13.5c-2.9,1.7-6,3-9.3,3.5c-3.9,0.6-10.5-1.9-10.5-3.9
		c0-1.9,1.9-5.1,0-9c-2.2-4.8-3.6-10-3.9-15.3c0.2-4.5,3.4-8.3,7.7-9.3c3.5-0.6,5.7-6.7,9-7c3.2-0.3,8-2.6,11.5,0
		c3.6,2.6,5.1,4.8,8,5.4c2.9,0.6,3.9,7,2.2,9.6C184.9,365.1,174.3,364.1,174.3,369.6z"/>
	<path class="st29" d="M154.2,395.1c0,0-13.5,2.2-17.9,11.5c-4.5,9.3-16.9,28.2-16.6,35.1c0.3,7,13.5,8.3,13.5,8.3
		s-2.9,50.5,3.8,55.6c6.7,5.1,48,5.4,53.1-1.9c0,0-2.9-43.2-3.2-56.2c0,0,19.2-3.5,19.2-9c0-5.4-16.3-36-24.9-39
		C172.6,396.5,172.8,394.5,154.2,395.1z"/>
	<path class="st27" d="M172.5,650.5c0,0,7.9,1.3,11.4,0c0,0,12,3.2,12.6,5.4s-0.7,4.6-10,5.1s-13.9,0.8-14,0
		C172.3,660.3,170.4,654.8,172.5,650.5z"/>
</g>
<g id="Layer_5">
	<path class="st20" d="M1061.6,623.5c0,0,1-7.3,4.4-7.3s25.2,14.3,25.2,16.6s-3,1.1-9,0s-18.1-1.7-18.1-1.7L1061.6,623.5z"/>
	<path class="st30" d="M987.2,453.2c0,0,6.9-6.6,13.4-7.9s15.4-3.2,21.6,7.9c3.2-1.9,7.1-2.4,10.7-1.3c6,1.9,18.3,9,17.5,15.7
		s-4.7,12.7-5.5,18.7s-0.2,9.6,1.3,15.2s2.4,7.5-0.9,7.5s-17.7-4.6-18.3-15.4s1.3-16.9,0.8-21.8c-0.6-4.9,0.4-11.1-1.5-12.6
		s-3.2-1.7-3.2-0.8s3.2,6,0.4,11.3s-7.6,7.3-10.3,6.9C1010.5,476.4,982.7,458.5,987.2,453.2z"/>
	<path class="st31" d="M1001.5,480.2c0.6,3,0.6,6.1,0,9c-1,5.5,17-4.5,17-4.5s-6.8-12.2-9.4-16.4
		C1006.5,464.1,1001.5,480.2,1001.5,480.2z"/>
	<path class="st10" d="M989.5,456.4c0.6,3.2,1.1,6.4,1.4,9.6c0,2.3-2,5.4-1.4,6.5s3.4,0.8,3.4,2.3c0,1.4-2.3,5.4,0,6.2
		c2.3,0.8,11.8,0.9,15.5-7.7s0-8.5-2.1-9C1004.3,463.6,996.5,451.9,989.5,456.4z"/>
	<path class="st21" d="M1019.3,561.3c-2.2,0.6-4.2,1.7-5.9,3.2c-1.8,1.5-5.3,3.7-11.9,6.2c-12.3,4.5-80.4,33.1-77.7,45.9
		c2.6,12.8,2.6,21.8,43.3,19.6c40.7-2.3,98.3-5.3,101.3-5.3s0.8-8.7-12.4-7.5c-13.2,1.1,7.5-7.1,10.9-13.6c2.9-5.5,13-28.9,0.6-50.2
		c-3.4-5.9-10.4-8.8-17-7L1019.3,561.3z"/>
	<path class="st10" d="M941.9,534.8c6.7,2.5,14,3,21.2,3.6c5.7,0.5,11.5,1.1,17.3,1.1c5.1,0-3.7,8.2-3.7,8.2s-25.7,7.3-39.8,0
		s-16-18.9-15.5-20.9s3.4-2.3,5.9-2c2.9,0.3,5,4.5,7.3,6.2C936.9,532.6,939.3,533.9,941.9,534.8z"/>
	<path class="st11" d="M991.8,498.4c1.4,8.3-8.8,22.6-11.2,27.5s-14.4,8.3-13.7,12.8c0.8,4.5,0,15.8,6.8,15.8s21-12.4,24.4-13.2
		s-1.1,17.3,12.8,19.2s47.8-12.4,48.9-14.7s-27.5-62.4-39.1-59.8S990.7,491.6,991.8,498.4z"/>
	<path class="st31" d="M875.8,523.6c0,0,0,7.7,1,9.7s3.6,4.5,6.4,4.5s7.4,0,7.9-2.6s0-13.2,0-13.2L875.8,523.6z"/>
	<path class="st10" d="M872.3,525.7c1.6,3.5,5,5.9,8.8,6.2c6.4,0.5,14.1-4.6,14.1-11.5c0-6.2-1.9-13.3-8.2-15.8
		c-5.3-2.1-11.3-0.2-14.4,4.5C869.8,513.7,869.7,520.7,872.3,525.7z"/>
	<path class="st10" d="M895.8,542.7c0,0,6.2,13.8,13.3,13.5c7-0.3,20.9-16.9,21.2-18.6c0.3-1.7-9,0.8-13.3,5s-15.2-1.1-16.7-2.2
		C898.9,539.3,892.8,537.4,895.8,542.7z"/>
	<path class="st32" d="M863.1,582.1c0,0-2.6,9.7-3.8,16.2s-10.6,13.8-7.8,22.6s8.5,15.9,11.7,15.6c3.2-0.3,4.8,1.9,5.7-1.2
		c0.8-3.1-6.4-13.8-5.8-15.2s8.2-12.1,9.4-15c1.3-2.8,5.7-16.9,3.8-23S865.6,578.9,863.1,582.1z"/>
	<path class="st32" d="M886.4,587c0,0,3.3,9.5,6,15.6c2.7,6-1,17.4,6.3,23.1c7.3,5.6,16,8.4,18.5,6.3c2.5-2.1,5-1.1,4-4.2
		s-13-7.8-13.3-9.4c-0.3-1.5-0.1-14.6-0.7-17.6c-0.6-3-4.9-17.2-9.8-21.1C892.3,575.6,886.6,582.9,886.4,587z"/>
	<path class="st11" d="M864.7,570.1c0,0-2.4,7.6-3.6,10.2s7.9,0.3,15.2,8.2c0,0,4.2,1.1,7.3,0s9.9-10.4,13.8-10.7
		c4-0.3-2.5-9.6-2.5-9.6L864.7,570.1z"/>
	
		<ellipse transform="matrix(0.9521 -0.3057 0.3057 0.9521 -117.1489 291.0803)" class="st10" cx="870.8" cy="519.6" rx="2.4" ry="3.3"/>
	<path class="st7" d="M891.2,530c0,0,11.2,8.2,14.6,9.9s-6,7.9-6.5,10.9c-0.5,2.9,0.9,17.3-1.7,19.3c-2.5,2-31.1,5.6-32.9,0
		c-1.8-5.6-5.1-35,7.6-38.1C876.6,531,885,541.4,891.2,530z"/>
	<path class="st10" d="M865.2,548.1c0,0,6.2,13.8,13.3,13.5s20.9-16.9,21.2-18.6c0.3-1.7-9,0.8-13.3,5c-4.2,4.2-15.2-1.1-16.7-2.3
		S862.3,542.8,865.2,548.1z"/>
	<path class="st7" d="M866.5,537.9c-2,4.8-2.5,10.1-1.5,15.2c1.7,7.9,18-6.4,16.4-7C879.6,545.5,871.9,536.8,866.5,537.9z"/>
</g>
</svg>
