<?xml version="1.0" encoding="utf-8"?>
<!-- Generator: Adobe Illustrator 25.4.1, SVG Export Plug-In . SVG Version: 6.00 Build 0)  -->
<svg version="1.1" id="Layer_1" xmlns:serif="http://www.serif.com/"
	 xmlns="http://www.w3.org/2000/svg" xmlns:xlink="http://www.w3.org/1999/xlink" x="0px" y="0px" viewBox="0 0 768 768"
	 style="enable-background:new 0 0 768 768;" xml:space="preserve">
<style type="text/css">
	.st0{fill-rule:evenodd;clip-rule:evenodd;fill:#0D8484;}
</style>
<path class="st0" d="M384,0c211.9,0,384,172.1,384,384S595.9,768,384,768S0,595.9,0,384S172.1,0,384,0z M263.9,599.8V299.9h-99.7
	v299.9H263.9z M623.4,599.8v-172c0-92.1-49.2-135-114.8-135c-52.9,0-76.6,29.1-89.8,49.5v-42.5h-99.7c1.3,28.1,0,299.9,0,299.9h99.7
	V432.3c0-9,0.6-17.9,3.3-24.3c7.2-17.9,23.6-36.4,51.1-36.4c36.1,0,50.5,27.5,50.5,67.8v160.4L623.4,599.8L623.4,599.8z
	 M214.8,155.3c-34.1,0-56.4,22.4-56.4,51.8c0,28.8,21.6,51.8,55.1,51.8h0.6c34.8,0,56.4-23,56.4-51.8
	C269.8,177.7,248.9,155.3,214.8,155.3L214.8,155.3z"/>
</svg>
