<svg id="ICONS" xmlns="http://www.w3.org/2000/svg" viewBox="0 0 67.1 72.61"><defs><style>.cls-1{fill:#e9f8fa;}.cls-2{fill:#f7dd9c;}.cls-3{fill:#099bae;}</style></defs><path class="cls-1" d="M62.89,71.07v-4a9.6,9.6,0,0,0-4.17-7.92,40.61,40.61,0,0,0-16.1-6.37,4.16,4.16,0,0,1-3.25-2.88,2.6,2.6,0,0,1,.91-2.83,13,13,0,0,0,5-8.49l1.45-9.68a13.52,13.52,0,0,0-5-12.95,11.36,11.36,0,0,0-6.75-2.2H32.18A11.38,11.38,0,0,0,25.43,16a13.54,13.54,0,0,0-5,13l1.46,9.68a12.87,12.87,0,0,0,5,8.49,2.6,2.6,0,0,1,.9,2.83,4.15,4.15,0,0,1-3.24,2.88A40.66,40.66,0,0,0,8.38,59.17a9.62,9.62,0,0,0-4.16,7.92v4H62.89Z"/><path class="cls-2" d="M62.74,70.92V68.43a8.11,8.11,0,0,0-3.53-6.69A39.27,39.27,0,0,0,43.68,55.6a5.61,5.61,0,0,1-4.42-3.93A4.11,4.11,0,0,1,40.7,47.2a11.48,11.48,0,0,0,4.4-7.52L46.55,30a12,12,0,0,0-4.44-11.53,9.93,9.93,0,0,0-5.83-1.92H33.44a9.93,9.93,0,0,0-5.83,1.92A12,12,0,0,0,23.17,30l1.46,9.69A11.47,11.47,0,0,0,29,47.2a4.1,4.1,0,0,1,1.45,4.47A5.63,5.63,0,0,1,26,55.6a39.4,39.4,0,0,0-15.53,6.14A8.13,8.13,0,0,0,7,68.43v2.49H62.74Z"/><path class="cls-3" d="M62.93,72.61a1.5,1.5,0,0,1-1.5-1.5v-4a8.1,8.1,0,0,0-3.53-6.69,39.27,39.27,0,0,0-15.53-6.14A5.61,5.61,0,0,1,38,50.36a4.09,4.09,0,0,1,1.44-4.47,11.48,11.48,0,0,0,4.4-7.52l1.45-9.69A12,12,0,0,0,40.8,17.15,9.93,9.93,0,0,0,35,15.23H32.13a9.93,9.93,0,0,0-5.83,1.92,12,12,0,0,0-4.44,11.53l1.46,9.69a11.47,11.47,0,0,0,4.39,7.52,4.1,4.1,0,0,1,1.45,4.47,5.63,5.63,0,0,1-4.43,3.93A39.4,39.4,0,0,0,9.2,60.43a8.11,8.11,0,0,0-3.52,6.69v2.49H57.47a1.5,1.5,0,0,1,0,3H4.18a1.5,1.5,0,0,1-1.5-1.5v-4A11.14,11.14,0,0,1,7.5,58a42.63,42.63,0,0,1,16.71-6.62,2.6,2.6,0,0,0,2.07-1.84,1.07,1.07,0,0,0-.36-1.19,14.55,14.55,0,0,1-5.57-9.48l-1.46-9.69a15,15,0,0,1,5.65-14.41,12.71,12.71,0,0,1,7.65-2.49H35a12.86,12.86,0,0,1,7.59,2.49,15,15,0,0,1,5.65,14.41l-1.46,9.69a14.51,14.51,0,0,1-5.57,9.48,1.08,1.08,0,0,0-.36,1.19,2.6,2.6,0,0,0,2.07,1.84A42.56,42.56,0,0,1,59.6,58a11.14,11.14,0,0,1,4.83,9.17v4A1.51,1.51,0,0,1,62.93,72.61ZM35.05,5.45V1.5a1.5,1.5,0,0,0-3,0v4a1.5,1.5,0,1,0,3,0ZM23.63,9.05a1.5,1.5,0,0,0,.9-1.92L23.11,3.25a1.5,1.5,0,1,0-2.81,1l1.41,3.88a1.49,1.49,0,0,0,1.41,1A1.52,1.52,0,0,0,23.63,9.05ZM16.3,16a1.5,1.5,0,0,0,.16-2.12L12.57,9.34a1.5,1.5,0,1,0-2.28,1.95l3.89,4.54a1.5,1.5,0,0,0,1.14.53A1.52,1.52,0,0,0,16.3,16Zm-2.89,8.68a1.51,1.51,0,0,0-.55-2.05L5.36,18.3a1.5,1.5,0,1,0-1.5,2.6l7.5,4.33a1.53,1.53,0,0,0,.75.2A1.51,1.51,0,0,0,13.41,24.68ZM14,32.87a1.5,1.5,0,0,0-1.22-1.74l-11-1.95a1.5,1.5,0,1,0-.52,3l11,1.94.26,0A1.5,1.5,0,0,0,14,32.87ZM2.65,43.28l11.25-2a1.5,1.5,0,0,0-.53-3l-11.25,2a1.5,1.5,0,0,0,.26,3Zm5,9.72,8.89-5.13a1.5,1.5,0,1,0-1.5-2.6L6.14,50.4a1.5,1.5,0,0,0,.75,2.8A1.46,1.46,0,0,0,7.64,53ZM45.39,8.18l1.42-3.9a1.5,1.5,0,1,0-2.82-1l-1.42,3.9a1.5,1.5,0,0,0,2.82,1Zm7.44,7.48,3.82-4.54a1.5,1.5,0,1,0-2.3-1.93l-3.81,4.55a1.49,1.49,0,0,0,.18,2.11,1.51,1.51,0,0,0,1,.35A1.47,1.47,0,0,0,52.83,15.66Zm2.92,9.57,7.5-4.33a1.5,1.5,0,0,0-1.5-2.6l-7.5,4.33a1.5,1.5,0,0,0,.75,2.8A1.59,1.59,0,0,0,55.75,25.23Zm-.94,8.85,11-1.94a1.5,1.5,0,1,0-.52-3L54.29,31.13a1.5,1.5,0,0,0,.26,3A1.15,1.15,0,0,0,54.81,34.08Zm11.39,8A1.51,1.51,0,0,0,65,40.33l-11.25-2a1.5,1.5,0,0,0-.52,3l11.25,2a1.15,1.15,0,0,0,.26,0A1.52,1.52,0,0,0,66.2,42.07ZM61.48,52.44a1.5,1.5,0,0,0-.54-2l-8.88-5.13a1.5,1.5,0,1,0-1.5,2.6L59.44,53a1.53,1.53,0,0,0,.75.2A1.49,1.49,0,0,0,61.48,52.44Z"/></svg>