<svg id="Layer_1" data-name="Layer 1" xmlns="http://www.w3.org/2000/svg" viewBox="0 0 239.7 192.16"><defs><style>.cls-1{fill:#f0bb5b;}.cls-2{fill:#3e210f;}.cls-3{fill:#e57149;}.cls-4{fill:#ef9267;}.cls-5{fill:#4499ab;}.cls-6{fill:#fcf9eb;}.cls-7{fill:#e89268;}.cls-8{fill:#0d8484;}</style></defs><path class="cls-1" d="M210.19,178.76s1-7.31,4.36-7.31S239.7,185.71,239.7,188s-3,1.13-9,0-18.05-1.71-18.05-1.71Z"/><path class="cls-2" d="M135.93,8.89S142.77,2.32,149.3,1s15.34-3.19,21.54,7.88a13.21,13.21,0,0,1,10.7-1.31c6,1.87,18.21,9,17.46,15.66s-4.7,12.68-5.45,18.69-.19,9.57,1.32,15.2,2.44,7.51-.94,7.51S176.28,60,175.72,49.25s1.31-16.9.75-21.78.38-11.07-1.5-12.57-3.19-1.69-3.19-.75,3.19,6,.37,11.26-7.59,7.25-10.27,6.91S131.42,14.15,135.93,8.89Z"/><path class="cls-3" d="M150.23,35.74a21.12,21.12,0,0,1,0,9c-1,5.45,17-4.5,17-4.5s-6.76-12.17-9.38-16.32S150.23,35.74,150.23,35.74Z"/><path class="cls-4" d="M138.25,12a93,93,0,0,1,1.4,9.57c0,2.25-2,5.35-1.4,6.48s3.37.84,3.37,2.25-2.25,5.35,0,6.19,11.74.94,15.49-7.69,0-8.45-2.06-9S145.28,7.58,138.25,12Z"/><path class="cls-5" d="M168,116.63a15.33,15.33,0,0,0-5.9,3.21c-1.78,1.52-5.25,3.74-11.87,6.18-12.23,4.51-80.18,33-77.55,45.8s2.56,21.77,43.14,19.52,98-5.25,101-5.25.75-8.64-12.39-7.51,7.51-7.13,10.89-13.52c2.93-5.53,13-28.83.64-50.1A14.93,14.93,0,0,0,199,108Z"/><path class="cls-4" d="M90.76,90.25c6.67,2.48,14,3,21.15,3.58,5.72.5,11.52,1.1,17.27,1.1,5.07,0-3.66,8.16-3.66,8.16s-25.62,7.32-39.7,0-16-18.86-15.49-20.83,3.38-2.25,5.92-2c2.88.32,5,4.53,7.26,6.16A30.67,30.67,0,0,0,90.76,90.25Z"/><path class="cls-6" d="M140.59,53.94c1.39,8.32-8.78,22.53-11.15,27.41s-14.38,8.26-13.63,12.76,0,15.77,6.76,15.77,20.93-12.39,24.36-13.14-1.08,17.27,12.81,19.14,47.68-12.38,48.8-14.64S181.07,39,169.5,41.55,139.47,47.18,140.59,53.94Z"/><path class="cls-3" d="M24.84,79.11s0,7.69.95,9.65,3.56,4.51,6.4,4.51,7.36,0,7.83-2.55,0-13.13,0-13.13Z"/><path class="cls-4" d="M21.36,81.21a10.56,10.56,0,0,0,8.76,6.15c6.37.46,14.11-4.58,14.11-11.46,0-6.2-1.93-13.29-8.22-15.8a12,12,0,0,0-14.35,4.53C18.9,69.16,18.79,76.16,21.36,81.21Z"/><path class="cls-4" d="M44.77,98.15S51,111.94,58,111.66,78.84,94.83,79.12,93.11s-9,.81-13.24,5S50.68,97,49.27,95.89,41.84,92.84,44.77,98.15Z"/><path class="cls-7" d="M12.13,137.43s-2.62,9.71-3.82,16.18S-2.3,167.41.53,176.14,9,192,12.23,191.69s4.8,1.9,5.64-1.19-6.35-13.8-5.74-15.21,8.15-12.1,9.4-14.92,5.64-16.89,3.76-22.94S14.65,134.19,12.13,137.43Z"/><path class="cls-7" d="M35.37,142.29s3.3,9.5,6,15.53-1,17.37,6.26,23,15.95,8.36,18.43,6.25,5-1.13,4-4.16-13-7.82-13.31-9.33S56.61,159,56.06,156s-4.85-17.13-9.82-21.07S35.63,138.2,35.37,142.29Z"/><path class="cls-6" d="M13.82,125.46s-2.44,7.6-3.63,10.13,7.83.28,15.15,8.17c0,0,4.22,1.12,7.32,0s9.86-10.42,13.8-10.7S44,123.49,44,123.49Z"/><ellipse class="cls-4" cx="19.83" cy="75.05" rx="2.37" ry="3.31" transform="translate(-21.99 9.66) rotate(-17.8)"/><path class="cls-8" d="M40.23,85.43s11.2,8.21,14.58,9.9-6,7.92-6.5,10.86.87,17.3-1.67,19.27-31,5.63-32.82,0-5.09-34.92,7.54-38C25.62,86.46,34,96.83,40.23,85.43Z"/><path class="cls-4" d="M14.31,103.51S20.51,117.3,27.55,117s20.83-16.83,21.11-18.55-9,.81-13.23,5-15.2-1.13-16.61-2.25S11.39,98.21,14.31,103.51Z"/><path class="cls-8" d="M15.52,93.37A27.2,27.2,0,0,0,14,108.58c1.73,7.9,18-6.36,16.33-7S21,92.25,15.52,93.37Z"/></svg>