<?xml version="1.0" encoding="utf-8"?>
<!-- Generator: Adobe Illustrator 25.4.1, SVG Export Plug-In . SVG Version: 6.00 Build 0)  -->
<svg version="1.1" id="Layer_1" xmlns="http://www.w3.org/2000/svg" xmlns:xlink="http://www.w3.org/1999/xlink" x="0px" y="0px"
	 viewBox="0 0 235.8 365.4" style="enable-background:new 0 0 235.8 365.4;" xml:space="preserve">
<style type="text/css">
	.st0{fill:#FFFFFF;}
	.st1{fill:#0D8484;}
	.st2{fill:#A8DEE6;}
	.st3{fill:#FEA82E;}
	.st4{fill:none;stroke:#C8C8C8;stroke-width:16.33;stroke-miterlimit:10;}
	.st5{fill:#F5BB9C;}
	.st6{fill:#946155;}
	.st7{fill:#D8683B;}
	.st8{fill:#E2BD90;}
	.st9{fill:#26140A;}
	.st10{fill:#FAF0F0;}
</style>
<rect x="8.2" y="8.2" class="st0" width="219.5" height="131"/>
<path class="st1" d="M170.6,63.5c0.8,1.6-2,66.9-3.7,56.7s2.1-50.3,0-54.2c0,0-3.3-5.9-4.6-5.9S167.4,56.8,170.6,63.5z"/>
<path class="st1" d="M167.8,85.7c4.2-6.9,9.7-12.9,16.2-17.6c0,0,6.2-6.8,6.2-10.8c0,0,9.9,6.2,2.3,14.2S182.3,84.9,167.8,85.7z"/>
<path class="st1" d="M169.2,92c0,0-3.4-4.5-8.8-10.4c-2.3-2.5-3.6-5.8-3.5-9.2c0-0.8,0.1-1.5,0.3-2.2c0,0-12.2,4.5-7.8,10.9
	S158.2,87.9,169.2,92z"/>
<path class="st2" d="M143.3,91.7c0,0,7.4,2.1,8.5,8.6s-8,18.8-4.3,29.3s34.4,9.5,42.4,5.9s-7.4-25.5-6.2-31.8s6.2-10.1,6.2-11.9
	S149,90.3,143.3,91.7z"/>
<path class="st3" d="M168.6,65c0,0-7.7-10.5-8.8-23.2C159.8,41.8,176.7,44.5,168.6,65z"/>
<path class="st3" d="M166.9,64.5c0,0,9.3-9.2,12.3-21.5C179.2,43,162.2,43,166.9,64.5z"/>
<path class="st3" d="M150.4,47c0,0,11.8,5.5,18.8,16.2C169.2,63.1,153.1,68.8,150.4,47z"/>
<rect x="8.2" y="8.2" class="st4" width="219.5" height="131"/>
<path class="st5" d="M73.1,332.7v22.6c0,0,10.6,0.9,11,0s0-20.6,0-20.6L73.1,332.7z"/>
<path class="st5" d="M104.3,332.7v22.6c0,0,10.6,0.9,11,0s0-20.6,0-20.6L104.3,332.7z"/>
<path class="st6" d="M72.7,351.3c0,1.6,0.5,2,0,4.4s0.7,4.5,0,5.7s11.1,2.4,11.8,1.4s0-11.5,0-11.5H72.7z"/>
<path class="st7" d="M69.6,207.6c0,0-3.8,116.9,0,125.4s13.6,10.8,16.9,8.5s4.7-88.3,4.7-88.3s4.7,83.6,8.9,86.4s20.7,4.1,20.7,2.7
	s2.3-134.2-2.3-134.7S69.6,207.6,69.6,207.6z"/>
<path class="st5" d="M117.5,141.7c-2.6,13.3-2.6,27.1,0,40.4c4.4,21.9,11,51,12.5,53.6s0,11,4.4,10s6.6-5.6,3.4-12.5
	s-4.4-52.3-4.7-63.2s1.2-28.7-2.2-30.8S120,135.4,117.5,141.7z"/>
<path class="st5" d="M57.4,143.6c0,0-10.4,24.1-10.4,29.1s-0.9,9.6,5.2,13.1s22.3,8.5,27.6,8.5s-2.4-12.8-2.4-12.8
	s-18.2-0.3-18.2-3.1s7-23.2,8.5-31.3S57.4,143.6,57.4,143.6z"/>
<path class="st8" d="M113.9,74.3c0,0,3.8,22.2,0,24.1s-6.3-1.2-7.5,2.5s-0.9,7.5-1.9,7.8s-21.3-1.6-21.3-1.6l12.2-32.9
	C95.4,74.3,102.6,63.4,113.9,74.3z"/>
<path class="st9" d="M105.9,79.4v5.3c0,5.9,0.3,11.6-2.5,13.2c-2.8,1.7-5.9,2.9-9.1,3.4c-3.8,0.6-10.3-1.9-10.3-3.8s1.9-5,0-8.8
	c-2.2-4.7-3.5-9.8-3.8-15c0.2-4.4,3.3-8.1,7.5-9.1c3.4-0.6,5.6-6.6,8.8-6.9s7.8-2.5,11.3,0s5,4.7,7.8,5.3s3.8,6.9,2.2,9.4
	S105.9,74,105.9,79.4z"/>
<path class="st10" d="M86.2,104.4c0,0-13.2,2.2-17.5,11.3S52,143.2,52.4,150.1s13.2,8.1,13.2,8.1s-2.8,49.5,3.7,54.5s47,5.3,52-1.9
	c0,0-2.8-42.3-3.1-55.1c0,0,18.8-3.4,18.8-8.8s-16-35.3-24.4-38.2S104.3,103.8,86.2,104.4z"/>
<path class="st6" d="M104.1,354.6c0,0,7.7,1.3,11.2,0c0,0,11.8,3.1,12.3,5.3s-0.7,4.5-9.8,5s-13.6,0.8-13.7,0
	S102.1,358.8,104.1,354.6z"/>
</svg>
