<svg id="Layer_1" data-name="Layer 1" xmlns="http://www.w3.org/2000/svg" viewBox="0 0 268.87 240.35"><defs><style>.cls-1{fill:#f2bca7;}.cls-2{fill:#fea82e;}.cls-3{fill:#e5830e;}.cls-4{fill:#d8683b;}.cls-5{fill:#0d8484;}.cls-6{fill:#cc3b09;}.cls-7{fill:#eda691;}.cls-8{fill:#ef9267;}.cls-9{fill:#fcf9eb;}.cls-10{fill:none;stroke:#b7aba0;stroke-miterlimit:10;stroke-width:7px;}.cls-11{fill:#fcd430;}.cls-12{fill:#b7aba0;}</style></defs><path class="cls-1" d="M230.19,209.13s7.3,8.53,7.42,10.81-2,6.33.41,7.65,4.35,0,10.8.26,15.44,1.67,16.63.57-1.5-2.89-6.6-5.11-13.14-9.13-13.68-11.38-4.4-8.69-5.27-9.47S230.19,209.13,230.19,209.13Z"/><path class="cls-1" d="M230.19,200.67s8.92,6.82,9.52,9-.58,6.6,2,7.41,4.26-.94,10.62-2,15.45-1.59,16.38-2.92-2.07-2.51-7.52-3.62-14.76-6.18-15.75-8.27-6.12-7.57-7.14-8.16S230.19,200.67,230.19,200.67Z"/><polygon class="cls-2" points="176.6 110.83 194.83 128.32 215.84 104.33 199.68 88.18 176.6 110.83"/><polygon class="cls-3" points="217.93 106.67 215.84 89.28 208.45 97.97 217.93 106.67"/><polygon class="cls-3" points="215.84 104.33 217.93 106.67 197.93 129.25 194.83 128.32 215.84 104.33"/><path class="cls-4" d="M88.74,66.9S77.23,68.64,75.5,73,46.73,167.9,63.42,192.28s35.68,50.5,94.38,47.89,60.87-15.89,66.63-49-41.31-25-53.4-18.08c0,0-20.71-17.41-35.1-12.19C135.93,160.93,131.33,69.51,88.74,66.9Z"/><path class="cls-5" d="M99.32,132.77s25.91-9.61,77.8,8.28,69.78,56.66,69.78,56.66S226,216.2,220.65,215.61s-49.5-38.16-56.36-39.66-24.75,9.24-43.83,8.64S89.18,148.87,99.32,132.77Z"/><path class="cls-6" d="M156,49.47s-7.54-5.75-14.18-6.31-15.61-1.43-20.5,10.28a13.21,13.21,0,0,0-10.78-.09C104.8,55.9,93.49,64.34,95,70.89s6.11,12.07,7.53,18,1.28,9.49.43,15.26-1.57,7.74,1.78,7.35,17-6.67,16.34-17.36-3.22-16.64-3.22-21.55-1.63-11,.06-12.66,3-2,3.09-1.11-2.49,6.33.91,11.23,8.37,6.34,11,5.7S161.1,54.18,156,49.47Z"/><path class="cls-7" d="M144.86,77.77a21.35,21.35,0,0,0,1,9c1.64,5.29-17.4-2.54-17.4-2.54S133.81,71.31,136,66.9,144.86,77.77,144.86,77.77Z"/><path class="cls-1" d="M154.07,52.81a91.45,91.45,0,0,0-.31,9.67c.25,2.24,2.56,5.09,2.13,6.28s-3.26,1.22-3.1,2.62,2.85,5.06.71,6.15S142,79.8,137.24,71.65s-1-8.39,1-9.19S146.57,49.23,154.07,52.81Z"/><path class="cls-4" d="M70.46,174s52.07-7.79,80,17.11-59.35,10.55-69.11,4.63S70.46,174,70.46,174Z"/><path class="cls-8" d="M169.25,147s14.23-4.21,22.08-15.09c0,0,9.85-1.16,12.65-6.17s-1.86-8.88-1.86-8.88,2.92-5.37,1.73-5.36-11.36,4.61-14.51,10.7-20.13,7.83-24.91,16.54S169.25,147,169.25,147Z"/><path class="cls-9" d="M156.51,94.76c-.44,8.42,11.28,21.38,14.19,26s5,7.76,4.81,12.32-2.3,16.5-9,17.27-7.06-18.79-10.55-19.15,2.16,23.87-11.43,27.32-48.77-6.89-50.15-9,.49-60.93,32-63.74C138.17,84.68,156.86,87.92,156.51,94.76Z"/><polyline class="cls-10" points="43.52 5.52 43.52 73.94 43.52 233.58"/><line class="cls-10" x1="9.97" y1="73.38" x2="43.52" y2="73.38"/><line class="cls-10" x1="43.52" y1="39" x2="77.06" y2="39"/><circle class="cls-11" cx="16.17" cy="49.28" r="16.17"/><path class="cls-12" d="M30.17,57.36a16.17,16.17,0,0,1-28,0Z"/><circle class="cls-11" cx="67.8" cy="16.17" r="16.17"/><path class="cls-12" d="M81.8,24.25a16.17,16.17,0,0,1-28,0Z"/><line class="cls-10" x1="27.43" y1="233.14" x2="59.36" y2="233.14"/><line class="cls-10" x1="16.17" y1="61.4" x2="16.17" y2="73.38"/><line class="cls-10" x1="67.8" y1="27.86" x2="67.8" y2="39.84"/></svg>