<svg id="ICONS" xmlns="http://www.w3.org/2000/svg" viewBox="0 0 63.87 68.77"><defs><style>.cls-1{fill:#e9f8fa;}.cls-2{fill:#f7dd9c;}.cls-3{fill:#099bae;}</style></defs><circle class="cls-1" cx="31.98" cy="32" r="30.55"/><path class="cls-2" d="M59.06,66.62V64.47a7.44,7.44,0,0,0-3.23-6.13,36.91,36.91,0,0,0-14.55-5.75A5.47,5.47,0,0,1,37,48.75a4.06,4.06,0,0,1,1.43-4.43,10.59,10.59,0,0,0,4.06-7l1.37-9.12a11.1,11.1,0,0,0-4.1-10.67,9.12,9.12,0,0,0-5.38-1.77H31.68a9.08,9.08,0,0,0-5.38,1.77,11.12,11.12,0,0,0-4.11,10.67l1.38,9.12a10.59,10.59,0,0,0,4.06,7,4.06,4.06,0,0,1,1.43,4.43,5.48,5.48,0,0,1-4.32,3.84,36.78,36.78,0,0,0-14.55,5.75A7.42,7.42,0,0,0,7,64.47v2.15h52.1Z"/><path class="cls-1" d="M55.36,56.37a38.19,38.19,0,0,0-15-5.92,4.41,4.41,0,0,1-3.48-3.09,3,3,0,0,1,1-3.25,11.72,11.72,0,0,0,4.49-7.65l1.37-9.13a12.22,12.22,0,0,0-4.54-11.7,10.2,10.2,0,0,0-6.05-2H30.6a10.19,10.19,0,0,0-6,2,12.19,12.19,0,0,0-4.53,11.7l1.37,9.13a11.71,11.71,0,0,0,4.48,7.65A3,3,0,0,1,27,47.36a4.42,4.42,0,0,1-3.48,3.09,38.18,38.18,0,0,0-15,5.92,8.55,8.55,0,0,0-3.69,7v3.22H59.06V63.4A8.53,8.53,0,0,0,55.36,56.37Z"/><path class="cls-2" d="M59.25,66.81V64.66A7.47,7.47,0,0,0,56,58.52a36.92,36.92,0,0,0-14.55-5.74,5.5,5.5,0,0,1-4.32-3.84,4,4,0,0,1,1.43-4.43,10.62,10.62,0,0,0,4.06-6.95L44,28.43a11.15,11.15,0,0,0-4.1-10.67A9.18,9.18,0,0,0,34.53,16H31.86a9.18,9.18,0,0,0-5.38,1.76,11.15,11.15,0,0,0-4.1,10.67l1.37,9.13a10.67,10.67,0,0,0,4.07,6.95,4.08,4.08,0,0,1,1.43,4.43,5.51,5.51,0,0,1-4.32,3.84,36.94,36.94,0,0,0-14.55,5.74,7.46,7.46,0,0,0-3.24,6.14v2.15H59.25Z"/><path class="cls-3" d="M59.6,68.77A1.62,1.62,0,0,1,58,67.16V63.4a7.44,7.44,0,0,0-3.23-6.14A36.93,36.93,0,0,0,40.2,51.51a5.48,5.48,0,0,1-4.32-3.84,4.06,4.06,0,0,1,1.43-4.42,10.64,10.64,0,0,0,4.06-7l1.38-9.13A11.12,11.12,0,0,0,38.64,16.5a9.07,9.07,0,0,0-5.37-1.77H30.6a9.12,9.12,0,0,0-5.38,1.77,11.14,11.14,0,0,0-4.1,10.67l1.37,9.13a10.64,10.64,0,0,0,4.06,7A4,4,0,0,1,28,47.67a5.47,5.47,0,0,1-4.32,3.84A37.06,37.06,0,0,0,9.11,57.26,7.46,7.46,0,0,0,5.88,63.4v2.14h48a1.62,1.62,0,0,1,0,3.23H4.27a1.61,1.61,0,0,1-1.61-1.61V63.4a10.68,10.68,0,0,1,4.63-8.8A40.2,40.2,0,0,1,23.1,48.34a2.27,2.27,0,0,0,1.8-1.6.83.83,0,0,0-.27-.9,13.89,13.89,0,0,1-5.33-9.06l-1.37-9.13a14.37,14.37,0,0,1,5.4-13.76,12.3,12.3,0,0,1,7.27-2.38h2.67a12.35,12.35,0,0,1,7.27,2.38,14.37,14.37,0,0,1,5.4,13.76l-1.38,9.13a13.87,13.87,0,0,1-5.32,9.06.8.8,0,0,0-.27.9,2.27,2.27,0,0,0,1.79,1.6A40.25,40.25,0,0,1,56.58,54.6a10.68,10.68,0,0,1,4.63,8.8v3.76A1.61,1.61,0,0,1,59.6,68.77Zm-52-18.72A1.61,1.61,0,0,0,8,47.81a28.71,28.71,0,1,1,47.84,0,1.62,1.62,0,0,0,2.69,1.79,31.94,31.94,0,1,0-53.21,0,1.61,1.61,0,0,0,2.23.45Zm4.3-3a1.61,1.61,0,0,0,.45-2.24,23.89,23.89,0,0,1-3-6.34,1.61,1.61,0,1,0-3.09.93,27,27,0,0,0,3.4,7.2,1.61,1.61,0,0,0,2.23.45ZM57.05,29.65a1.61,1.61,0,0,0,1.35-1.84,27.11,27.11,0,0,0-7.69-15.17,1.61,1.61,0,0,0-2.28,2.28,23.81,23.81,0,0,1,6.78,13.37,1.61,1.61,0,0,0,1.6,1.37ZM54.16,47A27.28,27.28,0,0,0,58.7,32.77a1.61,1.61,0,0,0-1.56-1.67,1.59,1.59,0,0,0-1.66,1.57,23.9,23.9,0,0,1-4,12.56,1.62,1.62,0,0,0,.45,2.24,1.66,1.66,0,0,0,.9.27A1.6,1.6,0,0,0,54.16,47Z"/></svg>