<svg id="Layer_1" data-name="Layer 1" xmlns="http://www.w3.org/2000/svg" viewBox="0 0 338.76 306.11"><defs><style>.cls-1,.cls-5,.cls-6,.cls-7{fill:none;stroke-miterlimit:10;}.cls-1,.cls-6,.cls-7{stroke:#b7aba0;}.cls-1{stroke-width:3px;}.cls-2{fill:#b7aba0;}.cls-3{fill:#592a1c;}.cls-4{fill:#2d828e;}.cls-5{stroke:#d8683b;stroke-width:5px;}.cls-6{stroke-width:7px;}.cls-7{stroke-width:6.41px;}.cls-8{fill:#f0bb5b;}.cls-9{fill:#4499ab;}.cls-10{fill:#faf7e9;}.cls-11{fill:#26140a;}.cls-12{fill:#89462c;}</style></defs><line class="cls-1" x1="144.36" y1="265.3" x2="175.89" y2="285.13"/><rect class="cls-2" x="167.87" y="283.33" width="19.7" height="7.32"/><path class="cls-3" d="M159.38,243.15s13.57,34,17.6,36.66,7.17,3.43,3.76-10.92-6.42-26.32-10.13-27.51S159.38,243.15,159.38,243.15Z"/><path class="cls-4" d="M112.83,140.88S129,184.05,132.72,187.8s1.16,4.51,2.27,10.52,21,52.55,22.89,54.43,18-7.13,18-9.39-26.65-90.34-22.1-97.23C159,138.25,112.83,140.88,112.83,140.88Z"/><line class="cls-5" x1="222.84" y1="124.51" x2="277.26" y2="244.04"/><polyline class="cls-5" points="245.14 171.23 144.36 264.88 62.15 246.3"/><line class="cls-5" x1="108.89" y1="150.57" x2="234.83" y2="150.85"/><line class="cls-5" x1="108.89" y1="150.57" x2="62.15" y2="246.3"/><rect class="cls-2" x="83.55" y="147.19" width="47.3" height="7.32"/><rect class="cls-2" x="199.19" y="120.85" width="47.3" height="7.32"/><rect class="cls-2" x="126.63" y="246.3" width="19.7" height="7.32"/><circle class="cls-2" cx="62.15" cy="243.3" r="10.35"/><circle class="cls-2" cx="277.26" cy="243.3" r="10.35"/><circle class="cls-6" cx="61.5" cy="244.61" r="58"/><circle class="cls-7" cx="144.36" cy="265.3" r="11.65"/><circle class="cls-6" cx="277.26" cy="244.61" r="58"/><path class="cls-3" d="M169.51,91s17.27,19.14,30,23.27c0,0,4.13,9,9.76,10.14s7.88-4.51,7.88-4.51,6,1.13,5.63,0-7.88-9.38-14.64-10.51-22.52-23.65-32.29-25.53S169.51,91,169.51,91Z"/><path class="cls-8" d="M123.34,237.36s-3.57,5.54,0,7.23,18.36,3.71,25.24,3.66-2.25-2.26-4.22-3.1-7.48-2.12-9.29-4.05A13.34,13.34,0,0,0,123.34,237.36Z"/><path class="cls-3" d="M146.24,204s-22.9,32.28-22.9,33.41,6,4.5,7.51,4.13,25.9-29.66,26.65-34.54S146.24,204,146.24,204Z"/><path class="cls-9" d="M105.93,88.69s-9.39,22.91-9.39,32.67,1.5,30.4,24.78,32.28,42.8,1.88,52.56,0-38.4,46.55-33.66,53.69,11.13,13.89,17.14,13.51S211,151.76,211,146.13s-19.89-19.52-36-22.52-29.65-4.13-30.4-5.63,2.25-20.28,2.25-21.78S105.93,88.69,105.93,88.69Z"/><path class="cls-10" d="M158.63,45.62s9.19,6.28,8.16,14.92-2.89,10.89-2.71,12.39,12.94,8.26,14.82,12,1.12,16.14-5.63,15.39S153.79,91,153.79,91s1.08,6.82-4.17,9.42S103,98.46,103.19,88.32,114,36.84,135,39.49,158.63,45.62,158.63,45.62Z"/><path class="cls-11" d="M166.3,8.89S159.45,2.32,152.93,1s-15.35-3.19-21.55,7.88a13.21,13.21,0,0,0-10.7-1.31c-6,1.87-18.2,9-17.45,15.66s4.69,12.68,5.44,18.69.19,9.57-1.31,15.2-2.44,7.51.93,7.51S125.94,60,126.5,49.25s-1.31-16.9-.75-21.78-.37-11.07,1.5-12.57,3.19-1.69,3.19-.75-3.19,6-.37,11.26,7.59,7.25,10.27,6.91S170.8,14.15,166.3,8.89Z"/><path class="cls-3" d="M152,35.74a21.32,21.32,0,0,0,0,9c1,5.45-17-4.5-17-4.5s6.76-12.17,9.39-16.32S152,35.74,152,35.74Z"/><path class="cls-12" d="M164,12a92.34,92.34,0,0,0-1.41,9.57c0,2.25,2,5.35,1.41,6.48s-3.38.84-3.38,2.25,2.25,5.35,0,6.19-11.73.94-15.49-7.69,0-8.45,2.07-9S156.94,7.58,164,12Z"/><path class="cls-8" d="M177,279.81s-2.77,3.63-1.09,5.32,14.36,6.48,20.84,5.35,1.13-2.25-2-3.38-10.09-8-12.81-8.32A8.8,8.8,0,0,0,177,279.81Z"/></svg>