<svg id="ICONS" xmlns="http://www.w3.org/2000/svg" viewBox="0 0 79.73 58.24"><defs><style>.cls-1{fill:#e9f8fa;}.cls-2{fill:#f7dd9c;}.cls-3{fill:#099bae;}</style></defs><path class="cls-1" d="M39.3,56.24A37.27,37.27,0,0,1,2,17.38a37.47,37.47,0,0,1,12.19,2.07l2.37.81.27-2.49A37.28,37.28,0,0,1,20.21,5.83a37.54,37.54,0,0,1,9.64,5.88l1.86,1.56,1.17-2.13a37.41,37.41,0,0,1,6.88-9,37,37,0,0,1,6.93,9l1.18,2.14,1.87-1.57A37.27,37.27,0,0,1,59.4,5.83a37.27,37.27,0,0,1,3.36,12L63,20.32l2.38-.83a38,38,0,0,1,12.29-2.11,37.42,37.42,0,0,1-10.34,27.4A37.51,37.51,0,0,1,40.43,56.24H39.3Z"/><path class="cls-2" d="M40.71,5.45a36.06,36.06,0,0,1,6.38,8.75,39.61,39.61,0,0,0-6.33,8.18,39.11,39.11,0,0,0-6.37-8.24A36,36,0,0,1,40.71,5.45Z"/><path class="cls-3" d="M79.67,16.8a1.5,1.5,0,0,0-1.48-1.41A39.6,39.6,0,0,0,64.75,17.6,39.35,39.35,0,0,0,61,4.53a1.49,1.49,0,0,0-1.91-.73,39.14,39.14,0,0,0-10.65,6.44A39.41,39.41,0,0,0,40.78.4a1.51,1.51,0,0,0-2.05,0,39.35,39.35,0,0,0-7.6,9.78A39,39,0,0,0,20.52,3.8a1.49,1.49,0,0,0-1.91.73,39.28,39.28,0,0,0-3.74,13A39.31,39.31,0,0,0,1.54,15.39,1.5,1.5,0,0,0,.06,16.8,39.28,39.28,0,0,0,39.3,58.24h1.13A39.28,39.28,0,0,0,79.67,16.8ZM61.83,18.75A38.84,38.84,0,0,0,49.3,27.46,39.31,39.31,0,0,0,39.86,44a39,39,0,0,0-2.28-6.11,36.31,36.31,0,0,1,2.34-10.7,35.89,35.89,0,0,1,19-20A36.21,36.21,0,0,1,61.83,18.75ZM39.76,3.59a36.11,36.11,0,0,1,6.38,8.76,39.28,39.28,0,0,0-6.33,8.17,39.08,39.08,0,0,0-6.38-8.24A36.54,36.54,0,0,1,39.76,3.59Zm-19,3.55a36.3,36.3,0,0,1,9.68,6.38,1.4,1.4,0,0,0,.33.31,35.9,35.9,0,0,1,7.42,9.91c-.36.78-.71,1.56-1,2.37a39.67,39.67,0,0,0-2,7.29,38.58,38.58,0,0,0-4.66-5.94,39.25,39.25,0,0,0-12.65-8.77A36.45,36.45,0,0,1,20.71,7.14Zm-7.61,37A36.47,36.47,0,0,1,3,18.39,35.9,35.9,0,0,1,28.26,29.54a36.43,36.43,0,0,1,10.1,25.69A35.91,35.91,0,0,1,13.1,44.09Zm53.53,0A36.45,36.45,0,0,1,41.37,55.23,36.27,36.27,0,0,1,76.72,18.39,36.46,36.46,0,0,1,66.63,44.09Z"/></svg>