<svg id="ICONS" xmlns="http://www.w3.org/2000/svg" viewBox="0 0 75.13 75.38"><defs><style>.cls-1{fill:#e9f8fa;}.cls-2{fill:#f7dd9c;}.cls-3{fill:#099bae;}</style></defs><path class="cls-1" d="M66.72,57.28v0a2.79,2.79,0,0,1-2.78,2.78H40.35a12.46,12.46,0,0,1-8.13-3L14.45,41.66l-.16-.12a15.6,15.6,0,0,1-3-2.6.86.86,0,0,0-.14-.13L4.4,33l-.72-.64a2.76,2.76,0,0,1,2-4.57h.18a1.48,1.48,0,0,0,1.54-1.3A15.69,15.69,0,0,1,21.32,13,14.28,14.28,0,0,0,35.43,24.66,13.76,13.76,0,0,0,38,24.42c1.3,3.47,4.69,12.44,6.76,17.36a1.48,1.48,0,0,0-1.49,1.07,1.5,1.5,0,0,0,1,1.86l2.6.77a2,2,0,0,0,.33.09l16.73,4.91c2.79,1.13,2.79,2,2.79,2.56v4.24Z"/><path class="cls-2" d="M5.44,34l.72.65,6.76,5.84.13.13a15.09,15.09,0,0,0,3,2.61l.15.12L36.86,61.23a2.26,2.26,0,0,0,1.45.54H65.7A2.78,2.78,0,0,0,68.48,59V54.72c0-.61,0-1.43-2.79-2.56L48.81,47.21l-.15-.05h0a1.25,1.25,0,0,1-.34-.19A1.19,1.19,0,0,1,48,46.7L48,46.56c-1.24-2-6.51-15.93-8.21-20.46a14.65,14.65,0,0,1-2.55.23A14.28,14.28,0,0,1,23.08,14.69,15.68,15.68,0,0,0,9.19,28.14a1.47,1.47,0,0,1-1.54,1.3H7.48A2.77,2.77,0,0,0,4.76,32.2,2.71,2.71,0,0,0,5.44,34Z"/><path class="cls-3" d="M65,47.62l-.13,0-16.38-4.8C47.15,40.06,42.9,29,40.34,22.1L40.27,22a15.59,15.59,0,0,1-1-4.53,1.48,1.48,0,0,0-1.6-1.39,1.5,1.5,0,0,0-1.39,1.6A18.4,18.4,0,0,0,37,21.5,11.31,11.31,0,0,1,24.11,11.26a1.5,1.5,0,0,0-1.49-1.37h0A18.68,18.68,0,0,0,4.66,24.81,5.76,5.76,0,0,0,1.5,34.34l.12.11L9.12,41a18.59,18.59,0,0,0,3.44,3L30.25,59.28A15.45,15.45,0,0,0,40.35,63H63.94a5.78,5.78,0,0,0,5.78-5.77V53C69.72,49.94,67.33,48.57,65,47.62ZM63.94,60H40.35a12.41,12.41,0,0,1-8.13-3L14.45,41.62a1,1,0,0,0-.16-.12,15.66,15.66,0,0,1-3-2.61l-.14-.13L4.4,32.91l-.72-.64A2.71,2.71,0,0,1,3,30.48,2.79,2.79,0,0,1,5.71,27.7l.18,0a1.48,1.48,0,0,0,1.54-1.3A15.67,15.67,0,0,1,21.32,13,14.28,14.28,0,0,0,35.43,24.61,13.76,13.76,0,0,0,38,24.37c1.3,3.47,4.69,12.44,6.76,17.36a1.5,1.5,0,0,0-.47,2.94l2.6.76a1.39,1.39,0,0,0,.33.1l16.73,4.9c2.79,1.14,2.79,2,2.79,2.56v.61a3.15,3.15,0,0,1-2.62,1.11H42.86a12,12,0,0,1-8.24-3.24L12.11,30.56a1.5,1.5,0,0,0-2,2.2L32.58,53.67a15.07,15.07,0,0,0,10.28,4H64.1a7,7,0,0,0,2.62-.48v0A2.78,2.78,0,0,1,63.94,60Z"/><path class="cls-3" d="M12.13,25.37a1.5,1.5,0,0,0,2-.76A9.73,9.73,0,0,1,19,19.72,1.5,1.5,0,1,0,17.75,17a12.68,12.68,0,0,0-6.38,6.4A1.49,1.49,0,0,0,12.13,25.37Z"/><path class="cls-3" d="M33.88,29.06a1.51,1.51,0,0,0,1.4,1,1.47,1.47,0,0,0,.54-.1A1.49,1.49,0,0,0,36.68,28l-.34-.89a1.5,1.5,0,0,0-2.8,1.07Z"/><path class="cls-3" d="M35.82,34.12l.31.81a1.51,1.51,0,0,0,1.4,1,1.47,1.47,0,0,0,.54-.1,1.49,1.49,0,0,0,.86-1.93l-.31-.81a1.5,1.5,0,1,0-2.8,1.07Z"/><path class="cls-3" d="M38.12,40.11l.27.71a1.51,1.51,0,0,0,1.4,1,1.47,1.47,0,0,0,.54-.1,1.5,1.5,0,0,0,.86-1.94L40.91,39a1.5,1.5,0,1,0-2.79,1.08Z"/><path class="cls-3" d="M37.44,0A37.33,37.33,0,0,0,22.36,3.14a1.5,1.5,0,0,0,1.21,2.75A34.34,34.34,0,0,1,37.44,3,34.73,34.73,0,0,1,72.13,37.69a35.22,35.22,0,0,1-1,8.45A1.5,1.5,0,0,0,72.19,48a1.47,1.47,0,0,0,.36,0A1.5,1.5,0,0,0,74,46.87a38.26,38.26,0,0,0,1.12-9.18A37.74,37.74,0,0,0,37.44,0Z"/><path class="cls-3" d="M56.31,66.81A34.71,34.71,0,0,1,3,41.81a1.5,1.5,0,1,0-3,.35A37.71,37.71,0,0,0,58,69.32a1.5,1.5,0,1,0-1.64-2.51Z"/></svg>