<svg id="Layer_1" data-name="Layer 1" xmlns="http://www.w3.org/2000/svg" xmlns:xlink="http://www.w3.org/1999/xlink" width="301.82" height="81.43" viewBox="0 0 301.82 81.43"><defs><mask id="mask" x="0" y="0" width="301.82" height="81.43" maskUnits="userSpaceOnUse"><g id="mask-8"><polygon id="path-7" points="0 0 301.82 0 301.82 81.43 0 81.43 0 0" fill="#fff" fill-rule="evenodd"/></g></mask></defs><title>Vivacity_Logo</title><g id="Page-1"><g id="Desktop"><g id="Hero"><g id="Logo"><g id="Group-26"><g mask="url(#mask)"><path id="Fill-24" d="M42.44,15.18h-4L22,59.79h-.19L4.17,15.18H0L19.61,64h4.45ZM51.69,64h3.6V15.18h-3.6Zm55.19-48.79h-4L86.42,59.79h-.19L68.61,15.18H64.44L84.05,64H88.5Zm38.94,30.19c0,2.56-1.8,16.6-18.19,16.6-8.52,0-12.79-4.74-12.79-10.63,0-7.3,4.84-10.34,13.36-11.29,7-.95,14.78-.57,17.62-3.8Zm3.6-18.61c0-10.06-8.53-12.71-17-12.71-11.46,0-18.09,5.4-18.57,16.13h3.6c.47-8.45,6.25-13,15-13,11.08,0,13.55,7.4,13.55,9.58,0,8-.67,9-16.77,10.16-8.05.66-17.91,3-17.91,14.42,0,10.26,7.11,13.77,16.3,13.77s15.82-5,18.09-10.82h.19v2.56c0,4,.85,7.12,6.54,7.12a16.59,16.59,0,0,0,2.93-.38v-3a16.9,16.9,0,0,1-2.65.29c-3.22,0-3.22-3-3.22-5.89Zm54.25,3.52c-1-11.11-9.57-16.23-20.08-16.23-14.4,0-22.36,11.48-22.36,25.05s6.54,26,22.36,26c10.51,0,18.94-6.65,20.55-18.32h-3.6C199.31,55.71,192.68,62,183.59,62c-12.6,0-18.76-9.68-18.76-22.87,0-11.1,6.54-21.92,18.76-21.92,8.81,0,15.82,4.46,16.48,13.1ZM215.86,64h3.6V15.18h-3.6Zm36-48.79H241.25V0h-3.6V15.18h-9v3.14h9V52.39c-.38,11,6.72,12,14.11,11.58V60.84c-6.82.19-10.51-.57-10.51-8.45V18.32h10.61Zm27.23,48.5c-2.27,6.46-3.6,10.07-5,11.49-2.46,2.47-5,3.13-10.14,3.13v3.13c5.5,0,8.81-.19,11.37-2.18,2.08-1.61,3.69-5.32,5.68-10.06l20.84-54h-4.07L281.08,59.7,263,15.18h-4.27Z" fill="#fefefe" fill-rule="evenodd"/></g></g></g></g></g></g></svg>