<svg id="ICONS" xmlns="http://www.w3.org/2000/svg" viewBox="0 0 72.36 71.65"><defs><style>.cls-1{fill:#f7dd9c;}.cls-2{fill:#099bae;}.cls-3{fill:#efba32;}</style></defs><polygon class="cls-1" points="24.29 42.23 45.55 63.34 62.16 45.16 48.93 25.82 24.29 42.23"/><path class="cls-1" d="M31,46,18.62,26.92a4.33,4.33,0,0,1,1.28-6h0a4.35,4.35,0,0,1,6,1.29L38.27,41.3"/><path class="cls-2" d="M31,47.52a1.51,1.51,0,0,1-1.26-.68L17.36,27.74a5.84,5.84,0,1,1,9.81-6.35l12.35,19.1a1.48,1.48,0,0,1-.44,2.07A1.5,1.5,0,0,1,37,42.12L24.65,23a2.87,2.87,0,0,0-1.79-1.23,2.84,2.84,0,0,0-3,4.32l12.36,19.1A1.5,1.5,0,0,1,31,47.52Z"/><path class="cls-1" d="M38.27,41.3,25.91,22.21a4.34,4.34,0,0,1,1.28-6h0a4.36,4.36,0,0,1,6,1.29l12.35,19.1"/><path class="cls-2" d="M38.27,42.8A1.49,1.49,0,0,1,37,42.12L24.65,23a5.77,5.77,0,0,1-.81-4.39,5.84,5.84,0,0,1,10.61-2l12.36,19.1A1.5,1.5,0,1,1,44.3,37.4L31.94,18.31a2.84,2.84,0,0,0-5.17.94,2.78,2.78,0,0,0,.4,2.14l12.35,19.1a1.48,1.48,0,0,1-.44,2.07A1.42,1.42,0,0,1,38.27,42.8Z"/><path class="cls-1" d="M45.55,36.59l-10-15.54a4.35,4.35,0,0,1,1.28-6h0a4.36,4.36,0,0,1,6,1.29L52.84,31.87"/><path class="cls-2" d="M45.56,38.09a1.47,1.47,0,0,1-1.26-.69L34.24,21.86a5.84,5.84,0,0,1,9.81-6.35L54.1,31.05a1.51,1.51,0,0,1-.44,2.08,1.49,1.49,0,0,1-2.07-.45L41.53,17.15a2.84,2.84,0,1,0-4.77,3.08L46.81,35.77a1.5,1.5,0,0,1-1.25,2.32Z"/><path class="cls-2" d="M50.89,20.69a1.5,1.5,0,0,1-1.5-1.46,11.57,11.57,0,0,0-7-10.33,1.5,1.5,0,1,1,1.18-2.76,14.57,14.57,0,0,1,8.8,13,1.49,1.49,0,0,1-1.46,1.53Z"/><path class="cls-2" d="M55.86,19.9a1.49,1.49,0,0,1-1.49-1.46A17.42,17.42,0,0,0,43.85,2.88,1.5,1.5,0,0,1,45,.12,20.45,20.45,0,0,1,57.37,18.36,1.51,1.51,0,0,1,55.9,19.9Z"/><path class="cls-2" d="M14.32,49.94a1.38,1.38,0,0,1-.65-.15A14.56,14.56,0,0,1,5.48,36.38,1.5,1.5,0,0,1,7,34.91H7a1.51,1.51,0,0,1,1.47,1.54A11.53,11.53,0,0,0,15,47.09a1.5,1.5,0,0,1-.66,2.85Z"/><path class="cls-2" d="M12.13,55.36a1.51,1.51,0,0,1-.65-.15A20.37,20.37,0,0,1,0,36.42,1.49,1.49,0,0,1,1.5,35h0A1.51,1.51,0,0,1,3,36.48a17.39,17.39,0,0,0,9.78,16,1.5,1.5,0,0,1-.66,2.85Z"/><path class="cls-1" d="M31,46,23.77,34.88a3.83,3.83,0,0,0-5.3-1.14h0A3.83,3.83,0,0,0,17.33,39l7.21,11.14,8,12.28a16.85,16.85,0,0,0,23.3,5h0s7.07-3.79,7.64-9.75l7.2-29.45a7.39,7.39,0,0,0-7.94.58c-2.18,1.41-3.38,8.38-3.38,8.38-18.46,10-11.47,20.3-11.47,20.3"/><path class="cls-2" d="M46.66,71.65a18.35,18.35,0,0,1-15.43-8.38L16.07,39.86a5.33,5.33,0,1,1,9-5.8l7.22,11.15a1.5,1.5,0,0,1-2.52,1.63L22.51,35.69a2.34,2.34,0,1,0-3.92,2.54L33.74,61.64A15.39,15.39,0,0,0,55,66.19l.11-.06c.06,0,6.36-3.49,6.85-8.57l0-.21,6.9-28.23a6,6,0,0,0-5.37,1c-1,.63-2.19,4.32-2.72,7.37l-.12.72-.64.35C53.42,42.1,49.38,46.2,48.32,50.39a8.29,8.29,0,0,0,.77,6.29,1.5,1.5,0,0,1-2.49,1.67,11.26,11.26,0,0,1-1.21-8.6c1.22-5,5.45-9.53,12.58-13.51.45-2.31,1.64-7.21,3.91-8.67,3.17-2.05,6.45-2.27,9.47-.63l1,.55L64.92,58c-.69,6.38-7.59,10.36-8.36,10.78A18.24,18.24,0,0,1,46.66,71.65Z"/><line class="cls-3" x1="52.84" y1="31.87" x2="56.58" y2="37.64"/><path class="cls-2" d="M56.58,39.14a1.48,1.48,0,0,1-1.26-.69l-3.74-5.77a1.5,1.5,0,0,1,2.52-1.63l3.74,5.77a1.51,1.51,0,0,1-1.26,2.32Z"/></svg>